<svg xmlns="http://www.w3.org/2000/svg" xmlns:xlink="http://www.w3.org/1999/xlink" width="500" zoomAndPan="magnify" viewBox="0 0 375 374.999991" height="500" preserveAspectRatio="xMidYMid meet" version="1.2"><defs><clipPath id="ad040cf33c"><path d="M 37.5 97.773438 L 336 97.773438 L 336 307.460938 L 37.5 307.460938 Z M 37.5 97.773438 "/></clipPath></defs><g id="e001ec01d2"><path style=" stroke:none;fill-rule:nonzero;fill:#f8a00d;fill-opacity:1;" d="M 335.476562 126.585938 C 335.542969 126.5625 335.613281 126.53125 335.679688 126.5 C 335.621094 126.527344 335.550781 126.558594 335.476562 126.585938 "/><path style=" stroke:none;fill-rule:nonzero;fill:#f8a00d;fill-opacity:1;" d="M 335.679688 126.5 L 335.828125 126.445312 L 335.679688 126.5 "/><path style=" stroke:none;fill-rule:nonzero;fill:#f8a00d;fill-opacity:1;" d="M 335.828125 126.445312 L 336 126.367188 C 336 126.367188 335.933594 126.398438 335.828125 126.445312 "/><g clip-rule="nonzero" clip-path="url(#ad040cf33c)"><path style=" stroke:none;fill-rule:nonzero;fill:#f8a00d;fill-opacity:1;" d="M 335.84375 97.769531 L 37.5 97.769531 L 37.5 126.09375 C 44.128906 126.09375 50.449219 123.679688 55.933594 128.730469 C 60.5 132.941406 62.285156 139.382812 63.792969 145.179688 C 65.464844 151.59375 67.46875 157.472656 69.945312 163.621094 C 72.894531 170.9375 73.136719 177.460938 72.523438 185.289062 C 72.003906 191.925781 71.023438 198.460938 69.671875 204.972656 C 68.734375 209.476562 68.539062 219.582031 76.207031 217.554688 C 88.761719 214.242188 79.007812 195.296875 77.675781 187.433594 C 75.726562 175.957031 77.28125 164.664062 81.753906 153.945312 C 83.480469 149.800781 86.75 142.875 92.296875 143.363281 C 96.875 143.761719 96.167969 151.507812 96.886719 154.605469 C 97.898438 158.984375 99.707031 157.878906 101.953125 156.773438 C 102.964844 156.277344 104.0625 155.777344 105.214844 155.777344 C 110.484375 155.785156 109.871094 167.003906 109.863281 170.128906 C 109.835938 177.640625 111.992188 184.769531 112.96875 192.167969 C 114.183594 201.390625 114.519531 210.703125 114.296875 219.992188 C 114.09375 228.375 113.789062 237 112.503906 245.296875 C 111.390625 252.519531 108.121094 259.570312 108.660156 266.996094 C 109.023438 272 112.363281 278.945312 118.519531 277.054688 C 125.855469 274.800781 125.984375 264.164062 124.59375 258.183594 C 119.542969 236.390625 116.125 213.15625 119.246094 190.777344 C 121.207031 176.6875 124.550781 160.042969 131.011719 147.285156 C 133.035156 143.296875 135.78125 137.425781 140.445312 136.019531 C 146.601562 134.160156 151.601562 142.871094 153.78125 147.230469 C 155.40625 150.488281 155.640625 153.828125 156.257812 157.34375 C 156.839844 160.703125 157.953125 163.828125 158.347656 167.269531 C 159.429688 176.496094 158.550781 185.808594 157.625 195.007812 C 156.960938 201.589844 153.796875 208.238281 154.363281 214.890625 C 154.921875 221.414062 162.601562 226.128906 165.804688 218.359375 C 168.226562 212.484375 165.847656 206.660156 164.585938 200.851562 C 163.234375 194.613281 161.886719 188.378906 161.242188 182.019531 C 160.601562 175.542969 160.472656 168.585938 162.765625 162.390625 C 163.847656 159.460938 163.96875 146.257812 168.535156 146.152344 C 169.480469 146.128906 170.175781 147.367188 170.863281 148.605469 C 171.945312 150.546875 173.003906 152.492188 174.980469 149.542969 C 177.660156 145.554688 176.667969 140.078125 178.796875 135.796875 C 181.542969 130.238281 187.191406 128.484375 191.921875 133.066406 C 196.183594 137.195312 196.503906 144.042969 196.117188 149.574219 C 195.703125 155.511719 194.472656 161.871094 199.792969 166.03125 C 204.324219 169.570312 202.703125 180.84375 203.355469 186.09375 C 205.292969 201.65625 204.121094 217.675781 204.78125 233.335938 C 205.472656 250.121094 206.660156 267.40625 202.445312 283.816406 C 200.824219 290.09375 198.914062 297.371094 202.199219 303.453125 C 205.160156 308.949219 211.964844 308.660156 215.011719 303.394531 C 220.710938 293.527344 213.449219 278.566406 212.390625 267.957031 C 211.039062 254.417969 211.234375 240.722656 211.578125 227.140625 C 211.875 215.320312 211.070312 202.839844 212.511719 191.140625 C 213.355469 184.246094 214.652344 177.386719 216.421875 170.667969 C 217.503906 166.570312 218.570312 160.273438 221.773438 157.152344 C 225.101562 153.914062 230.390625 162.015625 231.308594 164.292969 C 233.847656 170.609375 235.785156 177.992188 236.226562 184.773438 C 237.113281 198.164062 235.898438 212.3125 233.234375 225.433594 C 232.339844 229.835938 230.472656 238.050781 236.847656 239.570312 C 243.503906 241.148438 246.175781 233.617188 245.628906 228.554688 C 245.039062 223.097656 242.785156 217.949219 241.578125 212.625 C 240.203125 206.5625 240.152344 200.660156 240.167969 194.5 C 240.179688 187.472656 240.324219 180.417969 240.972656 173.417969 C 241.144531 171.644531 241.898438 154.582031 246.570312 157.496094 C 248.261719 158.554688 249.652344 161.441406 251.34375 158.34375 C 252.769531 155.71875 250.769531 152.332031 250.652344 149.609375 C 250.382812 143.121094 251.6875 135.105469 257.957031 131.777344 C 262.449219 129.382812 269.367188 129.71875 272.441406 134.242188 C 275.382812 138.574219 274.441406 144.742188 273.554688 149.554688 C 272.925781 152.980469 272.269531 156.953125 273.1875 160.371094 C 273.933594 163.164062 275.671875 161.53125 277.40625 159.898438 C 279.269531 158.144531 281.121094 156.390625 281.726562 160.121094 C 283.851562 173.152344 281.433594 187.410156 281.859375 200.59375 C 282.410156 218.011719 284.472656 236.15625 281.800781 253.492188 C 280.761719 260.21875 277.941406 266.683594 277.898438 273.570312 C 277.875 278.859375 280.917969 287.378906 287.816406 285.253906 C 300.410156 281.390625 292.210938 261.640625 290.792969 252.988281 C 286.695312 227.914062 290.484375 202.535156 289.417969 177.351562 C 288.875 164.511719 292.726562 151.53125 297.761719 139.734375 C 299.300781 136.140625 302.375 130.398438 307.21875 132.078125 C 313.3125 134.195312 313.136719 141.925781 313.277344 147.195312 C 313.65625 160.457031 314.621094 174.074219 313.425781 187.308594 C 312.828125 193.925781 311.640625 200.421875 310.261719 206.90625 C 309.015625 212.8125 313.875 218.738281 319.785156 214.890625 C 324.546875 211.777344 323.203125 204.976562 321.957031 200.40625 C 320.210938 193.988281 318.121094 187.785156 317.800781 181.066406 C 317.558594 175.996094 316.753906 170.714844 316.804688 165.664062 C 316.835938 162.269531 318.171875 159.777344 319.105469 156.660156 C 320.464844 152.148438 319.402344 146.617188 319.597656 141.953125 C 319.777344 137.667969 320.238281 132.554688 324.328125 130.136719 C 327.851562 128.054688 332.253906 127.929688 336 126.367188 C 335.484375 99.726562 335.84375 124.425781 335.84375 97.769531 "/></g><path style=" stroke:none;fill-rule:nonzero;fill:#f8a00d;fill-opacity:1;" d="M 335.476562 126.585938 C 335.074219 126.757812 334.875 126.839844 334.8125 126.867188 C 334.902344 126.828125 335.203125 126.703125 335.476562 126.585938 "/><path style=" stroke:none;fill-rule:nonzero;fill:#fce262;fill-opacity:1;" d="M 307.246094 132 C 308.171875 132.320312 309.058594 132.8125 309.800781 133.476562 C 310.546875 134.128906 311.140625 134.9375 311.597656 135.8125 C 312.507812 137.574219 312.894531 139.539062 313.113281 141.480469 C 313.320312 143.433594 313.34375 145.394531 313.402344 147.339844 L 313.605469 153.199219 C 313.902344 161.007812 314.269531 168.820312 314.140625 176.644531 C 314.066406 180.550781 313.867188 184.46875 313.476562 188.355469 C 313.082031 192.257812 312.484375 196.125 311.777344 199.972656 C 311.417969 201.894531 311.039062 203.808594 310.636719 205.722656 C 310.433594 206.683594 310.1875 207.628906 310.179688 208.589844 C 310.15625 209.558594 310.292969 210.527344 310.582031 211.441406 C 311.148438 213.273438 312.425781 214.972656 314.238281 215.671875 C 315.136719 216.027344 316.128906 216.105469 317.074219 215.925781 C 318.023438 215.746094 318.917969 215.34375 319.730469 214.816406 L 319.820312 214.957031 C 319.039062 215.550781 318.140625 216.050781 317.140625 216.3125 C 316.140625 216.566406 315.046875 216.542969 314.03125 216.207031 C 313.015625 215.867188 312.097656 215.238281 311.375 214.449219 C 310.648438 213.660156 310.097656 212.722656 309.71875 211.726562 C 309.351562 210.710938 309.171875 209.640625 309.164062 208.566406 C 309.164062 208.03125 309.203125 207.503906 309.285156 206.953125 L 309.539062 205.5 C 309.867188 203.570312 310.179688 201.65625 310.464844 199.726562 C 311 195.886719 311.566406 192.042969 311.867188 188.207031 C 312.203125 184.351562 312.386719 180.492188 312.425781 176.613281 C 312.515625 172.742188 312.476562 168.851562 312.410156 164.960938 L 312.328125 159.109375 L 312.277344 156.183594 L 312.269531 153.246094 L 312.277344 147.375 C 312.292969 145.402344 312.335938 143.476562 312.210938 141.574219 C 312.105469 139.679688 311.851562 137.785156 311.089844 136.074219 C 310.34375 134.375 308.984375 132.925781 307.1875 132.160156 L 307.246094 132 "/><path style=" stroke:none;fill-rule:nonzero;fill:#fce262;fill-opacity:1;" d="M 281.816406 160.105469 C 282.703125 165.550781 282.800781 171.074219 282.664062 176.570312 C 282.53125 182.0625 282.152344 187.546875 282 193.039062 C 281.808594 198.527344 282.121094 204.015625 282.390625 209.503906 C 282.671875 214.992188 282.992188 220.480469 283.171875 225.976562 C 283.34375 231.472656 283.375 236.984375 283.070312 242.480469 C 282.910156 245.226562 282.679688 247.96875 282.328125 250.703125 C 282.15625 252.058594 281.972656 253.425781 281.71875 254.773438 C 281.464844 256.136719 281.152344 257.476562 280.816406 258.8125 C 280.144531 261.476562 279.382812 264.121094 278.824219 266.800781 C 278.269531 269.480469 277.875 272.230469 278.070312 274.957031 C 278.1875 276.320312 278.457031 277.667969 278.875 278.960938 C 279.300781 280.257812 279.882812 281.515625 280.671875 282.617188 C 281.464844 283.71875 282.515625 284.671875 283.792969 285.148438 C 285.070312 285.632812 286.492188 285.582031 287.785156 285.171875 L 287.835938 285.335938 C 286.546875 285.820312 285.046875 285.96875 283.65625 285.523438 C 282.253906 285.070312 281.097656 284.085938 280.210938 282.953125 C 279.324219 281.8125 278.671875 280.527344 278.179688 279.191406 C 277.6875 277.851562 277.34375 276.460938 277.164062 275.03125 C 276.992188 273.570312 277.0625 272.171875 277.152344 270.753906 C 277.261719 269.347656 277.464844 267.957031 277.71875 266.578125 C 278.226562 263.824219 278.925781 261.140625 279.523438 258.492188 C 280.136719 255.824219 280.546875 253.226562 280.84375 250.515625 C 281.144531 247.8125 281.335938 245.101562 281.457031 242.390625 C 281.703125 236.960938 281.664062 231.496094 281.457031 226.03125 C 281.308594 220.5625 281 215.089844 280.769531 209.585938 C 280.664062 206.839844 280.574219 204.085938 280.507812 201.320312 C 280.488281 199.945312 280.464844 198.542969 280.492188 197.160156 C 280.53125 195.765625 280.589844 194.382812 280.664062 193.003906 C 280.957031 187.476562 281.472656 182.011719 281.761719 176.539062 C 281.941406 173.8125 282.0625 171.078125 282.054688 168.339844 C 282.054688 166.972656 282.015625 165.605469 281.941406 164.238281 C 281.890625 162.871094 281.792969 161.503906 281.644531 160.136719 L 281.816406 160.105469 "/><path style=" stroke:none;fill-rule:nonzero;fill:#fce262;fill-opacity:1;" d="M 272.515625 134.195312 C 273.792969 136.050781 274.367188 138.308594 274.515625 140.527344 C 274.679688 142.761719 274.464844 144.996094 274.136719 147.199219 C 273.777344 149.398438 273.277344 151.5625 273.03125 153.765625 C 272.777344 155.957031 272.71875 158.207031 273.269531 160.347656 L 273.105469 160.394531 C 271.925781 158.359375 271.652344 155.90625 271.6875 153.617188 C 271.679688 152.457031 271.835938 151.324219 271.949219 150.199219 C 272.105469 149.074219 272.300781 148.015625 272.433594 146.9375 C 272.628906 145.871094 272.769531 144.8125 272.890625 143.753906 C 273.054688 142.707031 273.097656 141.660156 273.164062 140.613281 C 273.234375 138.523438 273.089844 136.460938 272.367188 134.289062 L 272.515625 134.195312 "/><path style=" stroke:none;fill-rule:nonzero;fill:#fce262;fill-opacity:1;" d="M 231.382812 164.261719 C 233.816406 170.328125 235.5625 176.695312 236.234375 183.210938 C 236.785156 189.734375 236.777344 196.289062 236.398438 202.8125 C 235.980469 209.335938 235.160156 215.828125 233.972656 222.261719 C 233.429688 225.480469 232.515625 228.644531 232.390625 231.898438 C 232.339844 233.515625 232.472656 235.183594 233.175781 236.632812 C 233.523438 237.355469 234.03125 238.003906 234.679688 238.488281 C 235.324219 238.972656 236.078125 239.292969 236.859375 239.480469 L 236.824219 239.652344 C 236.003906 239.53125 235.179688 239.261719 234.441406 238.800781 C 233.703125 238.332031 233.09375 237.664062 232.652344 236.894531 C 231.765625 235.339844 231.539062 233.558594 231.488281 231.867188 C 231.457031 230.164062 231.652344 228.488281 231.890625 226.847656 C 232.136719 225.203125 232.421875 223.632812 232.644531 222.015625 C 233.097656 218.808594 233.554688 215.597656 233.867188 212.371094 C 234.21875 209.15625 234.515625 205.929688 234.683594 202.707031 C 234.90625 199.476562 235.015625 196.242188 235.039062 193.019531 C 235.105469 189.785156 235.023438 186.53125 234.882812 183.34375 C 234.457031 176.964844 233.070312 170.597656 231.226562 164.324219 L 231.382812 164.261719 "/><path style=" stroke:none;fill-rule:nonzero;fill:#fce262;fill-opacity:1;" d="M 196.199219 149.578125 C 195.988281 152.835938 195.503906 156.105469 196.019531 159.328125 C 196.28125 160.925781 196.847656 162.488281 197.785156 163.804688 C 198.257812 164.464844 198.808594 165.058594 199.421875 165.589844 C 199.726562 165.855469 200.0625 166.089844 200.363281 166.394531 C 200.652344 166.6875 200.914062 167.015625 201.144531 167.359375 C 202.046875 168.761719 202.480469 170.386719 202.765625 171.996094 C 203.046875 173.613281 203.152344 175.25 203.21875 176.882812 C 203.273438 178.519531 203.273438 180.152344 203.285156 181.789062 C 203.308594 183.417969 203.324219 185.050781 203.554688 186.660156 C 205.113281 199.660156 204.578125 212.773438 204.757812 225.820312 C 204.800781 232.351562 205.21875 238.867188 205.429688 245.398438 C 205.652344 251.929688 205.734375 258.46875 205.347656 265 C 204.957031 271.523438 204.085938 278.039062 202.40625 284.359375 C 201.601562 287.519531 200.800781 290.699219 200.5625 293.953125 C 200.308594 297.183594 200.703125 300.542969 202.273438 303.410156 L 202.117188 303.492188 C 201.273438 302.085938 200.683594 300.503906 200.339844 298.875 C 200.011719 297.242188 199.929688 295.574219 199.996094 293.90625 C 200.128906 290.585938 200.832031 287.332031 201.53125 284.136719 C 203.039062 277.832031 203.78125 271.386719 204.019531 264.917969 C 204.078125 263.308594 204.109375 261.683594 204.113281 260.0625 C 204.128906 258.445312 204.144531 256.824219 204.128906 255.199219 C 204.101562 251.953125 204.003906 248.707031 203.867188 245.453125 L 203.398438 235.679688 C 203.21875 232.417969 203.101562 229.121094 203.039062 225.84375 C 202.996094 219.285156 203.136719 212.753906 203.109375 206.242188 C 203.09375 202.996094 203.03125 199.742188 202.890625 196.511719 C 202.816406 194.886719 202.710938 193.273438 202.609375 191.65625 C 202.511719 190.03125 202.382812 188.445312 202.21875 186.816406 L 202.167969 186.210938 L 202.113281 185.5625 C 202.085938 185.132812 202.0625 184.699219 202.054688 184.285156 C 202.039062 183.441406 202.046875 182.617188 202.054688 181.804688 C 202.078125 180.152344 202.113281 178.535156 202.09375 176.925781 C 202.0625 175.316406 201.988281 173.722656 201.757812 172.167969 C 201.527344 170.625 201.136719 169.101562 200.375 167.859375 C 200.191406 167.550781 199.980469 167.265625 199.742188 167.003906 C 199.621094 166.871094 199.527344 166.777344 199.355469 166.628906 C 199.21875 166.515625 199.035156 166.355469 198.882812 166.210938 C 198.242188 165.625 197.660156 164.960938 197.183594 164.230469 C 196.210938 162.777344 195.667969 161.089844 195.457031 159.421875 C 195.027344 156.054688 195.660156 152.800781 196.035156 149.570312 L 196.199219 149.578125 "/><path style=" stroke:none;fill-rule:nonzero;fill:#fce262;fill-opacity:1;" d="M 153.863281 147.191406 C 154.675781 148.808594 155.175781 150.558594 155.527344 152.324219 C 155.871094 154.089844 156.085938 155.875 156.421875 157.636719 C 157.078125 161.148438 158.289062 164.582031 158.578125 168.191406 C 159.324219 175.355469 158.945312 182.578125 158.308594 189.726562 L 157.78125 195.089844 C 157.585938 196.882812 157.222656 198.65625 156.804688 200.40625 C 155.976562 203.898438 154.929688 207.347656 154.558594 210.914062 C 154.460938 211.800781 154.40625 212.691406 154.421875 213.585938 C 154.4375 214.480469 154.488281 215.367188 154.707031 216.230469 C 155.125 217.949219 156.050781 219.566406 157.371094 220.75 C 158.035156 221.339844 158.804688 221.816406 159.640625 222.074219 C 160.480469 222.34375 161.398438 222.390625 162.234375 222.113281 C 163.078125 221.84375 163.804688 221.292969 164.378906 220.617188 C 164.953125 219.9375 165.386719 219.148438 165.726562 218.332031 L 165.886719 218.398438 C 165.601562 219.253906 165.226562 220.109375 164.683594 220.878906 C 164.125 221.628906 163.355469 222.292969 162.40625 222.648438 C 161.46875 223.015625 160.390625 223.035156 159.421875 222.777344 C 158.4375 222.53125 157.542969 222.039062 156.765625 221.421875 C 155.234375 220.164062 154.152344 218.414062 153.617188 216.5 C 153.339844 215.53125 153.25 214.539062 153.199219 213.609375 C 153.152344 212.65625 153.167969 211.710938 153.226562 210.777344 C 153.339844 208.902344 153.652344 207.070312 154.042969 205.289062 L 155.234375 200.035156 C 155.601562 198.304688 155.953125 196.621094 156.117188 194.902344 L 156.601562 189.570312 C 156.945312 186.019531 157.214844 182.464844 157.347656 178.929688 C 157.421875 177.15625 157.460938 175.382812 157.4375 173.621094 C 157.40625 171.855469 157.355469 170.082031 157.25 168.335938 C 157.191406 167.421875 157.125 166.605469 156.996094 165.734375 C 156.878906 164.875 156.722656 164.007812 156.542969 163.140625 C 156.199219 161.394531 155.78125 159.625 155.527344 157.800781 C 155.304688 155.980469 155.199219 154.195312 154.96875 152.433594 C 154.847656 151.554688 154.699219 150.679688 154.488281 149.824219 C 154.296875 148.957031 154.042969 148.105469 153.707031 147.269531 L 153.863281 147.191406 "/><path style=" stroke:none;fill-rule:nonzero;fill:#fce262;fill-opacity:1;" d="M 109.949219 170.128906 C 109.933594 174.878906 110.820312 179.570312 111.714844 184.214844 C 112.164062 186.546875 112.609375 188.886719 112.953125 191.238281 C 113.289062 193.59375 113.558594 195.953125 113.773438 198.3125 C 114.214844 203.042969 114.4375 207.792969 114.5 212.542969 C 114.558594 217.296875 114.421875 222.039062 114.257812 226.789062 C 114.074219 231.535156 113.789062 236.277344 113.230469 241 C 112.9375 243.359375 112.648438 245.71875 112.132812 248.042969 C 111.621094 250.367188 110.972656 252.652344 110.378906 254.953125 C 109.785156 257.246094 109.234375 259.554688 108.941406 261.902344 C 108.789062 263.078125 108.714844 264.253906 108.714844 265.4375 C 108.714844 266.621094 108.800781 267.800781 109.046875 268.953125 C 109.539062 271.246094 110.476562 273.511719 112.085938 275.238281 C 112.886719 276.09375 113.894531 276.78125 115.027344 277.085938 C 116.15625 277.398438 117.371094 277.324219 118.496094 276.972656 L 118.542969 277.136719 C 117.421875 277.5625 116.15625 277.734375 114.921875 277.464844 C 113.683594 277.195312 112.574219 276.496094 111.671875 275.632812 C 109.878906 273.859375 108.792969 271.539062 108.160156 269.140625 C 108.003906 268.527344 107.902344 267.925781 107.824219 267.285156 C 107.761719 266.675781 107.71875 266.058594 107.695312 265.445312 C 107.660156 264.210938 107.707031 262.980469 107.828125 261.765625 C 108.0625 259.332031 108.558594 256.949219 109.085938 254.617188 C 109.617188 252.289062 110.1875 249.992188 110.660156 247.722656 C 111.121094 245.488281 111.375 243.144531 111.628906 240.8125 C 112.121094 236.152344 112.394531 231.445312 112.542969 226.722656 C 112.953125 217.257812 113.058594 207.851562 112.445312 198.433594 C 112.296875 196.085938 112.097656 193.734375 111.839844 191.394531 C 111.578125 189.0625 111.1875 186.734375 110.820312 184.386719 C 110.484375 182.035156 110.148438 179.675781 109.925781 177.289062 C 109.816406 176.097656 109.730469 174.902344 109.695312 173.710938 C 109.675781 172.519531 109.703125 171.316406 109.777344 170.128906 L 109.949219 170.128906 "/><path style=" stroke:none;fill-rule:nonzero;fill:#fce262;fill-opacity:1;" d="M 92.308594 143.277344 C 92.804688 143.3125 93.3125 143.445312 93.761719 143.699219 C 94.210938 143.941406 94.589844 144.300781 94.898438 144.703125 C 95.503906 145.527344 95.832031 146.5 96.074219 147.464844 C 96.542969 149.40625 96.625 151.398438 96.851562 153.351562 C 96.957031 154.324219 97.175781 155.28125 97.542969 156.171875 C 97.738281 156.605469 97.976562 157.035156 98.335938 157.320312 C 98.691406 157.609375 99.164062 157.671875 99.628906 157.582031 C 100.558594 157.390625 101.421875 156.859375 102.324219 156.453125 C 103.226562 156.042969 104.191406 155.683594 105.214844 155.691406 L 105.214844 155.863281 C 104.25 156.191406 103.496094 156.707031 102.71875 157.289062 C 101.90625 157.828125 101.207031 158.519531 99.875 158.917969 C 99.539062 159.011719 99.132812 159.074219 98.679688 159.019531 C 98.230469 158.96875 97.765625 158.769531 97.410156 158.511719 C 96.691406 157.984375 96.34375 157.371094 96.058594 156.820312 C 95.773438 156.261719 95.625 155.730469 95.46875 155.1875 L 95.363281 154.78125 L 95.277344 154.359375 C 95.226562 154.078125 95.1875 153.8125 95.152344 153.550781 C 95.050781 152.507812 94.996094 151.53125 94.933594 150.578125 C 94.914062 149.609375 94.816406 148.6875 94.742188 147.777344 C 94.625 146.886719 94.488281 146.007812 94.148438 145.257812 C 93.835938 144.488281 93.246094 143.851562 92.289062 143.445312 L 92.308594 143.277344 "/><path style=" stroke:none;fill-rule:nonzero;fill:#fce262;fill-opacity:1;" d="M 63.875 145.160156 C 65.535156 151.511719 67.683594 157.722656 70.15625 163.804688 C 71.382812 166.863281 72.222656 170.082031 72.617188 173.359375 C 73.027344 176.628906 73.023438 179.933594 72.839844 183.210938 C 72.417969 189.777344 71.515625 196.300781 70.246094 202.75 C 69.9375 204.367188 69.535156 205.960938 69.417969 207.585938 C 69.28125 209.214844 69.285156 210.859375 69.546875 212.46875 C 69.683594 213.273438 69.886719 214.0625 70.210938 214.808594 C 70.527344 215.550781 70.972656 216.253906 71.589844 216.773438 C 72.195312 217.300781 72.972656 217.617188 73.773438 217.699219 C 74.578125 217.785156 75.398438 217.675781 76.1875 217.472656 L 76.230469 217.636719 C 75.445312 217.921875 74.609375 218.105469 73.730469 218.09375 C 72.855469 218.070312 71.945312 217.773438 71.210938 217.214844 C 70.460938 216.667969 69.917969 215.902344 69.519531 215.113281 C 69.117188 214.308594 68.847656 213.46875 68.652344 212.625 C 68.285156 210.921875 68.203125 209.199219 68.265625 207.496094 C 68.292969 206.632812 68.378906 205.789062 68.523438 204.917969 L 68.921875 202.492188 C 69.410156 199.273438 69.914062 196.050781 70.257812 192.816406 C 70.636719 189.59375 70.957031 186.339844 71.121094 183.121094 C 71.578125 176.671875 71.105469 170.3125 68.898438 164.300781 C 66.625 158.121094 64.765625 151.714844 63.710938 145.203125 L 63.875 145.160156 "/><path style=" stroke:none;fill-rule:nonzero;fill:#d0661d;fill-opacity:1;" d="M 319.71875 214.792969 C 320.425781 214.210938 321 213.511719 321.402344 212.738281 C 321.820312 211.976562 322.082031 211.144531 322.210938 210.289062 C 322.46875 208.582031 322.261719 206.816406 321.875 205.097656 C 321.515625 203.363281 320.984375 201.671875 320.382812 199.929688 C 319.800781 198.203125 319.230469 196.445312 318.65625 194.671875 C 317.492188 191.140625 316.550781 187.472656 316.039062 183.644531 C 315.902344 182.703125 315.84375 181.691406 315.785156 180.789062 C 315.730469 179.859375 315.664062 179.011719 315.582031 178.085938 L 315.058594 172.597656 C 314.925781 170.734375 314.8125 168.851562 314.800781 166.941406 C 314.792969 166.457031 314.800781 166.003906 314.804688 165.488281 C 314.804688 165.285156 314.820312 164.933594 314.84375 164.695312 C 314.867188 164.433594 314.894531 164.167969 314.933594 163.910156 C 315.066406 162.859375 315.304688 161.84375 315.621094 160.902344 C 316.238281 159.007812 316.992188 157.355469 317.476562 155.726562 C 317.695312 155.011719 317.851562 154.160156 317.964844 153.332031 C 318.074219 152.492188 318.140625 151.621094 318.179688 150.738281 C 318.261719 148.964844 318.195312 147.136719 318.230469 145.265625 C 318.246094 144.332031 318.277344 143.386719 318.351562 142.429688 C 318.433594 141.464844 318.523438 140.554688 318.671875 139.605469 C 318.96875 137.738281 319.410156 135.828125 320.277344 134.074219 C 320.714844 133.203125 321.253906 132.375 321.925781 131.675781 C 322.613281 130.980469 323.417969 130.433594 324.269531 130.035156 L 324.386719 130.234375 C 322.804688 131.15625 321.640625 132.667969 320.976562 134.359375 C 320.300781 136.054688 320.023438 137.886719 319.875 139.707031 C 319.722656 141.542969 319.6875 143.375 319.777344 145.210938 C 319.84375 147.046875 319.976562 148.886719 319.984375 150.738281 C 319.984375 152.585938 319.882812 154.449219 319.410156 156.265625 C 318.925781 158.058594 318.203125 159.761719 317.6875 161.515625 C 317.425781 162.390625 317.222656 163.277344 317.113281 164.183594 C 316.992188 165.078125 317.007812 165.988281 317.023438 166.910156 C 317.058594 168.742188 317.1875 170.574219 317.34375 172.40625 L 317.804688 177.910156 C 317.96875 179.757812 317.992188 181.601562 318.1875 183.417969 C 318.566406 187.070312 319.433594 190.652344 320.394531 194.195312 L 321.875 199.519531 C 322.375 201.300781 322.828125 203.09375 323.074219 204.925781 C 323.320312 206.757812 323.386719 208.648438 322.949219 210.472656 C 322.722656 211.375 322.367188 212.253906 321.84375 213.027344 C 321.3125 213.808594 320.628906 214.472656 319.84375 214.980469 L 319.714844 214.792969 "/><path style=" stroke:none;fill-rule:nonzero;fill:#d0661d;fill-opacity:1;" d="M 287.777344 285.144531 C 289.238281 284.597656 290.566406 283.757812 291.539062 282.617188 C 292.53125 281.5 293.164062 280.117188 293.507812 278.671875 C 294.179688 275.753906 293.875 272.660156 293.335938 269.660156 C 292.808594 266.652344 292.007812 263.660156 291.144531 260.65625 C 290.710938 259.160156 290.285156 257.65625 289.882812 256.109375 C 289.6875 255.339844 289.492188 254.558594 289.320312 253.746094 C 289.15625 252.90625 289.03125 252.207031 288.898438 251.394531 C 287.785156 245.140625 287.277344 238.808594 286.984375 232.492188 C 286.746094 226.179688 286.816406 219.871094 286.949219 213.601562 L 287.582031 194.828125 C 287.6875 191.707031 287.769531 188.59375 287.792969 185.484375 L 287.792969 180.820312 L 287.746094 176.113281 C 287.746094 169.664062 288.882812 163.316406 290.628906 157.230469 C 291.53125 154.191406 292.589844 151.207031 293.761719 148.28125 C 294.351562 146.820312 294.964844 145.371094 295.605469 143.933594 C 296.269531 142.503906 296.957031 141.089844 297.65625 139.683594 L 297.867188 139.777344 C 295.417969 145.535156 293.308594 151.445312 291.800781 157.519531 C 290.300781 163.589844 289.410156 169.832031 289.546875 176.078125 C 290.144531 188.59375 289.554688 201.144531 289.238281 213.652344 C 288.898438 226.164062 288.859375 238.734375 290.679688 251.125 C 291.0625 254.230469 291.902344 257.246094 292.648438 260.285156 C 293.402344 263.332031 294.121094 266.390625 294.539062 269.503906 C 294.933594 272.601562 295.105469 275.828125 294.238281 278.886719 C 293.800781 280.398438 293.046875 281.859375 291.917969 282.984375 C 290.800781 284.128906 289.359375 284.90625 287.851562 285.367188 L 287.777344 285.144531 "/><path style=" stroke:none;fill-rule:nonzero;fill:#d0661d;fill-opacity:1;" d="M 251.242188 158.292969 C 251.421875 157.035156 251.113281 156.011719 250.671875 154.953125 C 250.464844 154.421875 250.234375 153.890625 249.980469 153.335938 C 249.726562 152.785156 249.507812 152.195312 249.285156 151.5625 C 249.179688 151.246094 249.078125 150.910156 248.988281 150.558594 C 248.941406 150.382812 248.914062 150.195312 248.882812 150.007812 L 248.816406 149.472656 C 248.734375 148.832031 248.695312 148.195312 248.667969 147.550781 C 248.605469 146.265625 248.667969 144.96875 248.832031 143.671875 C 249.167969 141.085938 249.957031 138.457031 251.496094 136.195312 C 252.242188 135.058594 253.195312 134.050781 254.277344 133.242188 C 255.390625 132.46875 256.605469 131.871094 257.90625 131.675781 L 258.007812 131.875 C 255.882812 133.042969 254.210938 134.90625 253.105469 137.042969 C 251.996094 139.183594 251.398438 141.566406 251.097656 143.960938 C 250.941406 145.160156 250.859375 146.371094 250.839844 147.582031 C 250.832031 148.796875 250.792969 150.007812 251.070312 151.179688 C 251.324219 152.355469 251.695312 153.527344 251.898438 154.75 C 252.089844 155.953125 252.078125 157.292969 251.449219 158.394531 L 251.242188 158.292969 "/><path style=" stroke:none;fill-rule:nonzero;fill:#d0661d;fill-opacity:1;" d="M 236.867188 239.449219 C 238.75 239.71875 240.613281 239.21875 241.84375 238.011719 C 243.09375 236.828125 243.785156 235.136719 244.128906 233.425781 C 244.308594 232.574219 244.414062 231.695312 244.425781 230.832031 C 244.433594 230.394531 244.421875 229.96875 244.382812 229.539062 C 244.359375 229.328125 244.332031 229.121094 244.300781 228.914062 L 244.1875 228.242188 C 243.859375 226.492188 243.398438 224.710938 242.832031 222.945312 L 241.03125 217.585938 C 240.433594 215.761719 239.859375 213.878906 239.429688 211.941406 C 238.585938 208.070312 238.277344 204.144531 238.152344 200.285156 C 238.121094 198.359375 238.128906 196.445312 238.152344 194.546875 C 238.175781 192.644531 238.179688 190.726562 238.257812 188.824219 C 238.429688 185.007812 238.59375 181.179688 239.023438 177.367188 C 239.128906 176.417969 239.242188 175.460938 239.351562 174.511719 L 239.710938 171.699219 C 239.957031 169.796875 240.242188 167.886719 240.628906 165.992188 C 241.046875 164.101562 241.523438 162.214844 242.257812 160.386719 C 242.636719 159.476562 243.054688 158.5625 243.757812 157.769531 C 244.113281 157.394531 244.585938 157.035156 245.152344 156.949219 C 245.726562 156.863281 246.25 157.105469 246.628906 157.402344 L 246.507812 157.597656 C 246.121094 157.355469 245.667969 157.207031 245.242188 157.320312 C 244.808594 157.417969 244.449219 157.738281 244.175781 158.097656 C 243.613281 158.832031 243.269531 159.726562 242.980469 160.617188 C 242.414062 162.417969 242.085938 164.285156 241.824219 166.160156 C 241.5625 168.039062 241.382812 169.925781 241.25 171.816406 C 241.136719 173.710938 240.929688 175.601562 240.824219 177.492188 C 240.585938 181.269531 240.464844 185.066406 240.414062 188.855469 C 240.375 192.652344 240.347656 196.445312 240.441406 200.234375 C 240.523438 204.015625 240.800781 207.800781 241.546875 211.515625 C 242.269531 215.226562 243.570312 218.800781 244.570312 222.46875 C 245.070312 224.308594 245.496094 226.164062 245.726562 228.0625 C 245.988281 229.96875 245.824219 231.921875 245.300781 233.761719 C 244.761719 235.59375 243.84375 237.386719 242.316406 238.609375 C 241.5625 239.210938 240.652344 239.636719 239.695312 239.808594 C 238.734375 239.96875 237.75 239.894531 236.816406 239.671875 L 236.867188 239.449219 "/><path style=" stroke:none;fill-rule:nonzero;fill:#d0661d;fill-opacity:1;" d="M 214.90625 303.335938 C 215.601562 301.949219 216.03125 300.476562 216.273438 298.980469 C 216.53125 297.480469 216.601562 295.964844 216.539062 294.453125 C 216.414062 291.421875 215.800781 288.425781 215.039062 285.457031 C 214.316406 282.484375 213.4375 279.527344 212.601562 276.519531 C 212.175781 275.015625 211.792969 273.496094 211.457031 271.941406 C 211.285156 271.164062 211.128906 270.382812 211.003906 269.585938 C 210.867188 268.796875 210.765625 267.964844 210.675781 267.210938 C 209.90625 261 209.601562 254.753906 209.40625 248.519531 C 209.257812 242.285156 209.339844 236.0625 209.449219 229.859375 C 209.546875 226.738281 209.628906 223.707031 209.636719 220.609375 C 209.660156 217.527344 209.621094 214.429688 209.660156 211.324219 C 209.757812 205.105469 209.867188 198.828125 210.703125 192.578125 C 211.527344 186.347656 212.800781 180.226562 214.441406 174.191406 C 214.867188 172.695312 215.339844 171.1875 215.785156 169.722656 C 216.226562 168.25 216.652344 166.742188 217.136719 165.25 C 217.628906 163.761719 218.167969 162.277344 218.875 160.867188 C 219.601562 159.464844 220.503906 158.109375 221.695312 157.074219 L 221.855469 157.234375 C 220.765625 158.316406 219.980469 159.667969 219.359375 161.074219 C 218.742188 162.488281 218.277344 163.964844 217.867188 165.453125 C 217.457031 166.949219 217.113281 168.453125 216.742188 169.960938 C 216.359375 171.464844 215.972656 172.957031 215.621094 174.46875 C 214.210938 180.5 213.160156 186.613281 212.496094 192.765625 C 211.242188 205.097656 212.183594 217.519531 211.742188 229.910156 C 211.4375 242.292969 211.324219 254.699219 212.472656 267.039062 C 212.710938 270.121094 213.390625 273.144531 214.109375 276.15625 C 214.832031 279.171875 215.613281 282.171875 216.234375 285.210938 C 216.847656 288.25 217.324219 291.339844 217.300781 294.457031 C 217.277344 297.558594 216.691406 300.738281 215.109375 303.445312 L 214.90625 303.335938 "/><path style=" stroke:none;fill-rule:nonzero;fill:#d0661d;fill-opacity:1;" d="M 174.882812 149.484375 C 175.585938 146.945312 175.453125 144.644531 175.542969 142.09375 C 175.554688 140.820312 175.652344 139.496094 175.90625 138.121094 C 176.042969 137.429688 176.226562 136.738281 176.464844 136.039062 C 176.59375 135.6875 176.742188 135.34375 176.898438 135 C 177.003906 134.773438 177.035156 134.710938 177.136719 134.515625 C 177.226562 134.335938 177.316406 134.179688 177.40625 134.019531 C 178.152344 132.746094 179.128906 131.550781 180.382812 130.625 C 181.628906 129.707031 183.160156 129.039062 184.757812 128.941406 C 185.546875 128.886719 186.347656 128.921875 187.09375 129.121094 C 187.839844 129.316406 188.542969 129.601562 189.167969 129.976562 C 190.414062 130.761719 191.375 131.792969 192.003906 132.984375 L 191.839844 133.152344 C 190.921875 132.292969 189.875 131.566406 188.710938 131.125 C 187.554688 130.667969 186.28125 130.511719 185.070312 130.730469 C 183.847656 130.949219 182.707031 131.515625 181.75 132.300781 C 180.796875 133.089844 180.003906 134.082031 179.390625 135.164062 C 178.09375 137.3125 177.71875 139.859375 177.355469 142.351562 C 177.167969 143.605469 176.972656 144.871094 176.636719 146.109375 C 176.300781 147.339844 175.808594 148.550781 175.078125 149.605469 L 174.882812 149.484375 "/><path style=" stroke:none;fill-rule:nonzero;fill:#d0661d;fill-opacity:1;" d="M 165.699219 218.324219 C 166.503906 215.277344 166.226562 212.246094 165.453125 209.328125 C 165.085938 207.851562 164.632812 206.402344 164.136719 204.917969 C 163.652344 203.453125 163.207031 201.878906 162.808594 200.367188 C 161.96875 197.34375 161.28125 194.285156 160.601562 191.195312 C 159.972656 188.097656 159.480469 184.9375 159.152344 181.765625 C 158.886719 178.59375 158.722656 175.371094 158.945312 172.113281 C 159.222656 168.878906 159.757812 165.582031 160.996094 162.496094 L 161.234375 161.917969 L 161.324219 161.699219 C 161.339844 161.664062 161.363281 161.585938 161.390625 161.515625 C 161.488281 161.210938 161.578125 160.863281 161.660156 160.5 L 162.136719 158.257812 C 162.460938 156.726562 162.773438 155.167969 163.175781 153.625 C 163.617188 152.085938 164.070312 150.53125 164.816406 149.058594 C 165.191406 148.332031 165.632812 147.605469 166.226562 146.992188 C 166.535156 146.695312 166.886719 146.425781 167.28125 146.253906 C 167.683594 146.070312 168.117188 146 168.527344 146.039062 L 168.535156 146.265625 C 167.78125 146.277344 167.109375 146.734375 166.636719 147.328125 C 166.160156 147.925781 165.824219 148.625 165.542969 149.34375 C 164.988281 150.789062 164.652344 152.316406 164.363281 153.847656 C 164.085938 155.378906 163.878906 156.925781 163.660156 158.472656 C 163.554688 159.242188 163.445312 160.019531 163.316406 160.792969 C 163.25 161.179688 163.175781 161.566406 163.078125 161.953125 C 162.972656 162.351562 162.824219 162.707031 162.707031 163.074219 C 161.714844 166.015625 161.242188 169.121094 161.101562 172.226562 C 160.953125 175.332031 161.125 178.453125 161.429688 181.550781 C 162.003906 187.753906 163.273438 193.882812 164.578125 199.980469 C 165.183594 203.042969 166.132812 206.027344 166.644531 209.125 C 166.90625 210.675781 167.050781 212.246094 166.953125 213.816406 C 166.863281 215.390625 166.519531 216.953125 165.914062 218.40625 L 165.699219 218.324219 "/><path style=" stroke:none;fill-rule:nonzero;fill:#d0661d;fill-opacity:1;" d="M 118.484375 276.953125 C 119.789062 276.445312 120.921875 275.617188 121.757812 274.570312 C 122.617188 273.535156 123.214844 272.3125 123.601562 271.03125 C 124.386719 268.445312 124.453125 265.675781 124.175781 262.988281 C 124.050781 261.640625 123.832031 260.300781 123.511719 258.996094 L 122.4375 254.9375 C 121.722656 252.207031 121.085938 249.457031 120.46875 246.695312 C 119.214844 241.175781 118.265625 235.59375 117.46875 229.976562 C 116.722656 224.355469 116.238281 218.679688 116.050781 212.992188 C 115.921875 207.292969 116.082031 201.582031 116.675781 195.902344 C 116.984375 193.0625 117.421875 190.234375 117.886719 187.457031 C 118.339844 184.664062 118.878906 181.878906 119.484375 179.109375 C 120.648438 173.566406 122.109375 168.070312 123.929688 162.699219 C 124.871094 160.023438 125.902344 157.375 127.042969 154.78125 C 127.617188 153.488281 128.207031 152.199219 128.847656 150.9375 C 129.503906 149.679688 130.191406 148.449219 130.914062 147.230469 L 131.117188 147.335938 C 128.59375 152.351562 126.667969 157.652344 125.085938 163.039062 C 123.503906 168.429688 122.273438 173.917969 121.25 179.4375 C 120.738281 182.199219 120.28125 184.96875 119.871094 187.746094 C 119.453125 190.523438 119.074219 193.308594 118.820312 196.101562 C 118.304688 201.695312 118.167969 207.316406 118.332031 212.925781 C 118.640625 224.152344 120.125 235.324219 122.242188 246.351562 C 122.773438 249.117188 123.347656 251.863281 123.945312 254.609375 L 124.871094 258.722656 C 125.148438 260.105469 125.320312 261.515625 125.394531 262.921875 C 125.519531 265.738281 125.289062 268.609375 124.320312 271.285156 C 123.824219 272.617188 123.132812 273.882812 122.148438 274.933594 C 121.175781 275.976562 119.914062 276.757812 118.558594 277.160156 L 118.484375 276.953125 "/><path style=" stroke:none;fill-rule:nonzero;fill:#d0661d;fill-opacity:1;" d="M 76.175781 217.445312 C 77.804688 216.8125 79.246094 215.8125 80.121094 214.480469 C 81.007812 213.148438 81.367188 211.5625 81.394531 209.945312 C 81.449219 208.328125 81.226562 206.675781 80.875 205.039062 C 80.519531 203.398438 80.089844 201.761719 79.574219 200.128906 C 79.054688 198.5 78.484375 196.867188 77.9375 195.214844 C 77.378906 193.5625 76.800781 191.910156 76.285156 190.160156 C 76.023438 189.296875 75.800781 188.347656 75.648438 187.410156 C 75.503906 186.578125 75.359375 185.617188 75.25 184.738281 C 75.019531 182.949219 74.875 181.140625 74.8125 179.332031 C 74.75 175.710938 74.984375 172.09375 75.601562 168.535156 C 75.914062 166.757812 76.3125 164.996094 76.78125 163.257812 C 77.238281 161.519531 77.804688 159.8125 78.449219 158.136719 C 79.089844 156.464844 79.769531 154.804688 80.5625 153.207031 C 81.351562 151.605469 82.199219 150.003906 83.230469 148.492188 C 84.285156 147.007812 85.484375 145.5625 87.039062 144.492188 C 87.8125 143.964844 88.671875 143.539062 89.578125 143.308594 C 90.488281 143.082031 91.429688 143.070312 92.308594 143.246094 L 92.289062 143.472656 C 90.558594 143.308594 88.847656 143.988281 87.535156 145.097656 C 86.195312 146.195312 85.15625 147.625 84.269531 149.113281 C 83.386719 150.609375 82.652344 152.195312 81.984375 153.800781 C 81.308594 155.410156 80.703125 157.046875 80.15625 158.703125 C 77.972656 165.320312 76.886719 172.308594 77.101562 179.273438 C 77.148438 181.007812 77.265625 182.75 77.46875 184.476562 C 77.679688 186.203125 77.90625 187.933594 78.371094 189.609375 C 79.277344 192.964844 80.433594 196.28125 81.320312 199.667969 C 81.761719 201.367188 82.148438 203.078125 82.410156 204.8125 C 82.660156 206.550781 82.789062 208.320312 82.601562 210.078125 C 82.421875 211.820312 81.875 213.59375 80.730469 214.972656 C 79.597656 216.371094 77.9375 217.226562 76.238281 217.667969 L 76.175781 217.445312 "/><path style=" stroke:none;fill-rule:nonzero;fill:#fad690;fill-opacity:1;" d="M 110.152344 265.460938 C 110.089844 264.941406 110.046875 264.375 110.035156 263.75 C 109.910156 258.894531 113.289062 253.121094 113.289062 253.121094 C 113.289062 253.121094 115 258.839844 115.011719 263.265625 C 115.019531 263.851562 115.003906 264.382812 114.976562 264.871094 C 113.175781 265.015625 111.953125 265.3125 110.152344 265.460938 "/><path style=" stroke:none;fill-rule:nonzero;fill:#fad690;fill-opacity:1;" d="M 113.429688 270.503906 C 112.4375 270.503906 111.398438 269.855469 110.773438 267.195312 C 112.394531 267.070312 113.4375 266.921875 115.058594 266.792969 C 115.109375 269.59375 115.019531 270.273438 113.878906 270.457031 C 113.730469 270.488281 113.582031 270.503906 113.429688 270.503906 "/><path style=" stroke:none;fill-rule:nonzero;fill:#fad690;fill-opacity:1;" d="M 70.347656 210.816406 C 70.289062 210.371094 70.25 209.871094 70.238281 209.320312 C 70.128906 205.074219 73.085938 200.019531 73.085938 200.019531 C 73.085938 200.019531 74.585938 205.023438 74.601562 208.902344 C 74.601562 209.410156 74.585938 209.878906 74.566406 210.300781 C 72.992188 210.429688 71.921875 210.699219 70.347656 210.816406 "/><path style=" stroke:none;fill-rule:nonzero;fill:#fad690;fill-opacity:1;" d="M 73.214844 215.226562 C 72.34375 215.226562 71.433594 214.660156 70.890625 212.335938 C 72.304688 212.230469 73.21875 212.097656 74.632812 211.984375 C 74.679688 214.4375 74.601562 215.03125 73.601562 215.195312 C 73.476562 215.21875 73.347656 215.226562 73.214844 215.226562 "/><path style=" stroke:none;fill-rule:nonzero;fill:#fad690;fill-opacity:1;" d="M 155.609375 215.054688 C 155.578125 214.832031 155.5625 214.585938 155.558594 214.316406 C 155.503906 212.238281 156.953125 209.757812 156.953125 209.757812 C 156.953125 209.757812 157.691406 212.207031 157.691406 214.109375 C 157.699219 214.359375 157.691406 214.585938 157.683594 214.800781 C 156.90625 214.859375 156.378906 214.988281 155.609375 215.054688 "/><path style=" stroke:none;fill-rule:nonzero;fill:#fad690;fill-opacity:1;" d="M 157.019531 217.214844 C 156.59375 217.214844 156.144531 216.9375 155.871094 215.789062 C 156.5625 215.738281 157.019531 215.679688 157.714844 215.621094 C 157.734375 216.824219 157.699219 217.117188 157.207031 217.199219 C 157.144531 217.207031 157.078125 217.214844 157.019531 217.214844 "/><path style=" stroke:none;fill-rule:nonzero;fill:#fad690;fill-opacity:1;" d="M 202.199219 298.308594 C 202.128906 297.75 202.085938 297.140625 202.070312 296.46875 C 201.9375 291.273438 205.554688 285.070312 205.554688 285.070312 C 205.554688 285.070312 207.398438 291.203125 207.40625 295.957031 C 207.414062 296.582031 207.398438 297.148438 207.375 297.675781 C 205.445312 297.832031 204.128906 298.152344 202.199219 298.308594 "/><path style=" stroke:none;fill-rule:nonzero;fill:#fad690;fill-opacity:1;" d="M 205.710938 303.707031 C 204.644531 303.707031 203.53125 303.015625 202.863281 300.164062 C 204.601562 300.035156 205.71875 299.871094 207.457031 299.738281 C 207.511719 302.738281 207.414062 303.46875 206.191406 303.671875 C 206.03125 303.691406 205.875 303.707031 205.710938 303.707031 "/><path style=" stroke:none;fill-rule:nonzero;fill:#fad690;fill-opacity:1;" d="M 233.40625 231.140625 C 233.351562 230.707031 233.308594 230.222656 233.300781 229.703125 C 233.195312 225.605469 236.039062 220.742188 236.039062 220.742188 C 236.039062 220.742188 237.488281 225.5625 237.496094 229.300781 C 237.496094 229.785156 237.488281 230.238281 237.464844 230.648438 C 235.949219 230.765625 234.921875 231.019531 233.40625 231.140625 "/><path style=" stroke:none;fill-rule:nonzero;fill:#fad690;fill-opacity:1;" d="M 236.160156 235.382812 C 235.324219 235.382812 234.449219 234.839844 233.929688 232.597656 C 235.285156 232.492188 236.167969 232.367188 237.53125 232.261719 C 237.578125 234.625 237.496094 235.195312 236.539062 235.355469 C 236.414062 235.375 236.292969 235.382812 236.160156 235.382812 "/><path style=" stroke:none;fill-rule:nonzero;fill:#fad690;fill-opacity:1;" d="M 278.734375 275.597656 C 278.664062 275.058594 278.621094 274.472656 278.605469 273.824219 C 278.472656 268.773438 281.988281 262.765625 281.988281 262.765625 C 281.988281 262.765625 283.769531 268.714844 283.785156 273.316406 C 283.785156 273.921875 283.777344 274.480469 283.746094 274.984375 C 281.882812 275.132812 280.605469 275.445312 278.734375 275.597656 "/><path style=" stroke:none;fill-rule:nonzero;fill:#fad690;fill-opacity:1;" d="M 282.144531 280.832031 C 281.105469 280.832031 280.03125 280.167969 279.375 277.398438 C 281.0625 277.273438 282.144531 277.109375 283.828125 276.980469 C 283.882812 279.894531 283.785156 280.601562 282.605469 280.792969 C 282.449219 280.816406 282.300781 280.832031 282.144531 280.832031 "/><path style=" stroke:none;fill-rule:nonzero;fill:#fad690;fill-opacity:1;" d="M 311.636719 207.742188 C 311.589844 207.375 311.558594 206.980469 311.554688 206.550781 C 311.464844 203.160156 313.820312 199.125 313.820312 199.125 C 313.820312 199.125 315.023438 203.117188 315.023438 206.214844 C 315.03125 206.617188 315.023438 206.988281 315.007812 207.332031 C 313.753906 207.429688 312.894531 207.636719 311.636719 207.742188 "/><path style=" stroke:none;fill-rule:nonzero;fill:#fad690;fill-opacity:1;" d="M 313.933594 211.253906 C 313.230469 211.253906 312.507812 210.808594 312.066406 208.949219 C 313.203125 208.867188 313.925781 208.761719 315.058594 208.671875 C 315.097656 210.621094 315.03125 211.097656 314.238281 211.234375 C 314.136719 211.25 314.03125 211.253906 313.933594 211.253906 "/><path style=" stroke:none;fill-rule:nonzero;fill:#f8ac11;fill-opacity:1;" d="M 113.238281 137.898438 C 112.863281 137.898438 112.492188 137.878906 112.117188 137.835938 C 110.917969 137.707031 109.75 137.332031 108.679688 136.804688 C 107.605469 136.277344 106.628906 135.609375 105.695312 134.90625 C 103.835938 133.488281 102.136719 131.933594 100.253906 130.664062 C 98.386719 129.375 96.324219 128.394531 94.117188 127.941406 C 92.902344 127.675781 91.652344 127.5625 90.394531 127.5625 C 89.386719 127.5625 88.382812 127.632812 87.386719 127.765625 C 85.136719 128.070312 82.941406 128.71875 80.808594 129.546875 C 78.671875 130.375 76.609375 131.394531 74.457031 132.292969 C 73.378906 132.734375 72.269531 133.148438 71.089844 133.382812 C 70.597656 133.484375 70.082031 133.542969 69.5625 133.542969 C 68.851562 133.542969 68.132812 133.429688 67.460938 133.15625 C 67.171875 133.042969 66.890625 132.894531 66.625 132.730469 C 66.382812 132.578125 66.121094 132.394531 65.890625 132.234375 L 64.488281 131.210938 C 63.554688 130.523438 62.636719 129.820312 61.722656 129.113281 L 56.265625 124.847656 L 50.835938 120.542969 C 49.929688 119.832031 49.019531 119.125 48.097656 118.429688 C 47.636719 118.082031 47.179688 117.742188 46.707031 117.410156 C 46.472656 117.246094 46.238281 117.085938 46 116.933594 C 45.769531 116.785156 45.507812 116.617188 45.304688 116.566406 L 45.410156 116.113281 C 45.785156 116.164062 46.046875 116.292969 46.339844 116.398438 C 46.617188 116.515625 46.886719 116.640625 47.15625 116.769531 C 47.691406 117.027344 48.21875 117.292969 48.746094 117.558594 C 49.78125 118.117188 50.800781 118.699219 51.820312 119.269531 C 53.851562 120.433594 55.816406 121.675781 57.808594 122.878906 L 63.652344 126.605469 C 64.632812 127.203125 65.582031 127.84375 66.53125 128.445312 C 67.007812 128.75 67.480469 129.042969 67.949219 129.328125 L 68.296875 129.535156 L 68.382812 129.585938 L 68.425781 129.613281 L 68.429688 129.613281 C 68.429688 129.613281 68.410156 129.601562 68.390625 129.585938 C 68.371094 129.570312 68.351562 129.558594 68.351562 129.558594 C 68.351562 129.558594 68.359375 129.5625 68.375 129.570312 L 68.394531 129.585938 L 68.585938 129.691406 C 68.617188 129.707031 68.628906 129.710938 68.640625 129.710938 C 68.640625 129.710938 68.644531 129.707031 68.644531 129.707031 C 68.648438 129.703125 68.648438 129.699219 68.652344 129.699219 C 68.660156 129.699219 68.667969 129.703125 68.683594 129.707031 L 68.824219 129.742188 C 68.921875 129.757812 69.015625 129.765625 69.117188 129.765625 C 69.210938 129.765625 69.3125 129.757812 69.429688 129.75 C 69.667969 129.71875 69.972656 129.65625 70.324219 129.542969 C 71.039062 129.339844 71.9375 128.96875 72.875 128.515625 C 74.769531 127.589844 76.898438 126.464844 79.207031 125.476562 C 81.519531 124.492188 84.066406 123.6875 86.753906 123.261719 C 88.003906 123.074219 89.28125 122.984375 90.558594 122.984375 L 90.847656 122.984375 C 91.199219 122.984375 91.5 122.992188 91.90625 123.015625 L 92.359375 123.042969 L 92.945312 123.09375 C 93.671875 123.167969 94.382812 123.277344 95.09375 123.429688 C 97.953125 124.042969 100.652344 125.371094 102.824219 126.917969 C 105.003906 128.476562 106.777344 130.140625 108.351562 131.4375 C 109.132812 132.082031 109.871094 132.621094 110.566406 133.007812 C 111.265625 133.382812 111.898438 133.65625 112.585938 133.78125 C 112.953125 133.851562 113.328125 133.886719 113.730469 133.886719 C 114.09375 133.886719 114.476562 133.863281 114.871094 133.808594 L 115.175781 133.773438 L 115.59375 133.691406 C 115.820312 133.65625 116.042969 133.613281 116.296875 133.554688 C 116.796875 133.441406 117.296875 133.316406 117.804688 133.171875 C 119.828125 132.609375 121.871094 131.765625 123.945312 130.933594 C 126.027344 130.09375 128.09375 129.136719 130.175781 128.167969 C 132.289062 127.242188 134.378906 126.226562 136.542969 125.316406 C 137.632812 124.863281 138.722656 124.410156 139.847656 124.007812 C 140.414062 123.820312 140.988281 123.640625 141.585938 123.496094 C 142.042969 123.382812 142.519531 123.277344 143.027344 123.277344 C 143.167969 123.277344 143.3125 123.285156 143.453125 123.304688 L 143.453125 123.765625 C 142.945312 123.789062 142.398438 123.996094 141.886719 124.214844 C 141.363281 124.4375 140.855469 124.695312 140.347656 124.96875 C 139.339844 125.507812 138.347656 126.09375 137.363281 126.6875 L 131.453125 130.308594 C 127.484375 132.671875 123.4375 134.980469 119.058594 136.617188 C 117.960938 137.011719 116.839844 137.375 115.691406 137.625 C 114.886719 137.796875 114.066406 137.898438 113.238281 137.898438 "/><path style=" stroke:none;fill-rule:nonzero;fill:#f8ac11;fill-opacity:1;" d="M 162.652344 131.4375 C 162.527344 131.4375 162.398438 131.433594 162.273438 131.425781 C 161.207031 131.359375 160.160156 130.953125 159.308594 130.335938 C 158.460938 129.71875 157.789062 128.910156 157.207031 128.085938 C 156.914062 127.667969 156.644531 127.242188 156.378906 126.824219 C 156.242188 126.617188 156.117188 126.40625 155.976562 126.214844 C 155.847656 126.035156 155.667969 125.828125 155.59375 125.828125 L 155.585938 125.828125 L 155.640625 125.371094 C 155.660156 125.363281 155.683594 125.351562 155.726562 125.351562 C 155.742188 125.351562 155.765625 125.351562 155.796875 125.355469 C 155.878906 125.371094 155.90625 125.375 155.96875 125.390625 C 156.058594 125.421875 156.144531 125.457031 156.222656 125.492188 C 156.371094 125.566406 156.503906 125.644531 156.632812 125.71875 C 156.878906 125.878906 157.117188 126.03125 157.339844 126.1875 C 157.765625 126.507812 158.191406 126.804688 158.609375 127.0625 C 159.40625 127.597656 160.199219 127.992188 160.871094 128.148438 C 161.117188 128.203125 161.332031 128.226562 161.535156 128.226562 C 161.898438 128.226562 162.199219 128.15625 162.472656 128.046875 C 162.90625 127.871094 163.363281 127.621094 163.886719 127.246094 C 164.429688 126.902344 164.980469 126.402344 165.570312 125.894531 L 165.878906 125.648438 L 166.226562 125.375 L 166.921875 124.859375 C 167.378906 124.523438 167.863281 124.21875 168.355469 123.917969 C 168.847656 123.617188 169.347656 123.328125 169.855469 123.050781 C 170.371094 122.792969 170.898438 122.550781 171.4375 122.320312 C 171.964844 122.085938 172.511719 121.871094 173.054688 121.675781 C 173.609375 121.492188 174.167969 121.320312 174.734375 121.171875 C 176.765625 120.625 178.847656 120.363281 180.914062 120.363281 C 183.4375 120.363281 185.929688 120.75 188.242188 121.46875 C 190.355469 122.117188 192.332031 123.015625 194.160156 124.097656 C 195.996094 125.171875 197.636719 126.464844 199.25 127.792969 L 199.128906 128.234375 C 198.144531 127.972656 197.210938 127.621094 196.265625 127.300781 C 195.316406 126.980469 194.375 126.667969 193.429688 126.382812 C 191.535156 125.800781 189.609375 125.316406 187.660156 125.011719 C 186.109375 124.761719 184.535156 124.625 182.964844 124.625 C 180.601562 124.625 178.242188 124.929688 175.972656 125.582031 C 174.101562 126.136719 172.265625 126.859375 170.550781 127.820312 C 169.691406 128.292969 168.863281 128.816406 168.054688 129.382812 C 167.21875 129.964844 166.332031 130.492188 165.363281 130.875 C 164.511719 131.207031 163.59375 131.4375 162.652344 131.4375 "/><path style=" stroke:none;fill-rule:nonzero;fill:#f8ac11;fill-opacity:1;" d="M 231.539062 144.90625 C 231.429688 144.90625 231.316406 144.902344 231.203125 144.902344 C 229.570312 144.835938 228.011719 144.308594 226.578125 143.675781 C 225.144531 143.035156 223.792969 142.292969 222.367188 141.878906 C 221.683594 141.667969 220.988281 141.5625 220.285156 141.5625 C 219.53125 141.5625 218.777344 141.691406 218.0625 141.953125 C 217.710938 142.078125 217.375 142.226562 217.039062 142.394531 C 216.71875 142.546875 216.398438 142.773438 216.011719 142.953125 C 215.375 143.261719 214.652344 143.4375 213.9375 143.4375 C 213.808594 143.4375 213.683594 143.433594 213.554688 143.421875 C 212.710938 143.351562 211.914062 143.058594 211.203125 142.660156 C 210.496094 142.261719 209.863281 141.761719 209.277344 141.226562 C 208.113281 140.140625 207.144531 138.894531 206.265625 137.597656 C 204.539062 134.988281 203.152344 132.195312 202.003906 129.304688 L 202.429688 129.136719 C 202.9375 129.75 203.40625 130.378906 203.921875 130.984375 C 204.398438 131.597656 204.890625 132.199219 205.390625 132.789062 C 206.390625 133.964844 207.375 135.105469 208.398438 136.152344 C 209.414062 137.1875 210.457031 138.148438 211.496094 138.824219 C 212.003906 139.160156 212.503906 139.429688 212.929688 139.5625 C 213.203125 139.648438 213.429688 139.683594 213.601562 139.683594 C 213.703125 139.683594 213.785156 139.671875 213.855469 139.648438 C 214.027344 139.585938 214.078125 139.492188 214.265625 139.355469 L 214.332031 139.296875 L 214.367188 139.265625 L 214.375 139.257812 L 214.382812 139.253906 L 214.375 139.253906 L 214.375 139.257812 C 214.375 139.257812 214.382812 139.253906 214.4375 139.222656 L 214.464844 139.199219 L 214.527344 139.160156 L 214.773438 138.988281 L 215.144531 138.753906 C 215.628906 138.472656 216.09375 138.21875 216.628906 137.996094 C 217.675781 137.554688 218.890625 137.253906 220.113281 137.183594 C 220.316406 137.171875 220.519531 137.167969 220.710938 137.167969 C 221.734375 137.167969 222.726562 137.332031 223.601562 137.554688 C 224.652344 137.816406 225.5625 138.171875 226.351562 138.523438 L 228.449219 139.460938 C 229.6875 140.042969 230.601562 140.300781 231.40625 140.414062 C 231.578125 140.433594 231.742188 140.441406 231.914062 140.441406 C 232.160156 140.441406 232.414062 140.425781 232.683594 140.402344 C 232.90625 140.382812 233.160156 140.335938 233.375 140.285156 C 233.585938 140.230469 233.808594 140.152344 234.054688 140.050781 C 235.039062 139.640625 236.226562 138.949219 237.375 138.144531 C 238.53125 137.332031 239.734375 136.457031 240.921875 135.519531 L 244.554688 132.679688 C 247.039062 130.785156 249.597656 128.863281 252.449219 127.246094 C 253.160156 126.855469 253.890625 126.472656 254.644531 126.125 C 255.40625 125.789062 256.179688 125.488281 256.988281 125.238281 C 257.988281 124.921875 259.078125 124.707031 260.144531 124.707031 C 260.761719 124.707031 261.367188 124.78125 261.957031 124.941406 L 261.917969 125.402344 C 261.816406 125.398438 261.703125 125.394531 261.589844 125.394531 C 260.210938 125.394531 258.84375 125.863281 257.589844 126.480469 C 256.226562 127.164062 254.949219 128.03125 253.734375 128.960938 C 251.308594 130.839844 249.039062 132.941406 246.785156 135.058594 C 244.523438 137.171875 242.292969 139.328125 239.84375 141.277344 C 238.621094 142.246094 237.339844 143.167969 235.898438 143.871094 C 234.554688 144.527344 233.054688 144.90625 231.539062 144.90625 "/><path style=" stroke:none;fill-rule:nonzero;fill:#f8ac11;fill-opacity:1;" d="M 287.859375 133.378906 C 287.039062 133.378906 286.226562 133.238281 285.457031 133.019531 C 283.253906 132.371094 281.335938 131.148438 279.574219 129.808594 C 276.0625 127.074219 273.097656 123.761719 270.5 120.207031 L 270.875 119.9375 C 271.382812 120.226562 271.851562 120.546875 272.351562 120.84375 C 272.824219 121.152344 273.300781 121.457031 273.777344 121.761719 L 276.554688 123.550781 C 278.367188 124.722656 280.136719 125.867188 281.859375 126.8125 C 283.574219 127.742188 285.300781 128.53125 286.65625 128.757812 C 286.984375 128.828125 287.292969 128.855469 287.546875 128.855469 L 287.644531 128.851562 L 287.726562 128.851562 L 287.695312 128.851562 L 287.859375 128.84375 L 287.875 128.835938 C 287.972656 128.820312 288.074219 128.8125 288.1875 128.785156 C 288.652344 128.714844 289.261719 128.449219 289.972656 128.101562 C 291.398438 127.367188 293.03125 126.167969 294.753906 124.933594 L 296.066406 123.976562 L 297.449219 123.027344 C 298.382812 122.378906 299.375 121.769531 300.394531 121.160156 C 302.464844 120.007812 304.792969 118.925781 307.402344 118.558594 C 307.902344 118.484375 308.410156 118.445312 308.917969 118.445312 C 311.054688 118.445312 313.171875 119.109375 314.605469 120.429688 L 314.433594 120.855469 C 313.464844 120.5 312.441406 120.308594 311.410156 120.308594 L 311.300781 120.308594 C 310.238281 120.316406 309.1875 120.53125 308.179688 120.886719 C 306.15625 121.582031 304.3125 122.777344 302.589844 124.078125 C 300.851562 125.394531 299.210938 126.84375 297.53125 128.257812 C 295.835938 129.664062 294.121094 131.082031 292.128906 132.164062 C 291.144531 132.699219 290.054688 133.117188 288.898438 133.296875 C 288.554688 133.351562 288.203125 133.378906 287.859375 133.378906 M 287.671875 128.851562 L 287.679688 128.851562 L 287.671875 128.851562 M 287.679688 128.851562 L 287.664062 128.851562 L 287.695312 128.851562 L 287.679688 128.851562 "/></g></svg>