<svg xmlns="http://www.w3.org/2000/svg" xmlns:xlink="http://www.w3.org/1999/xlink" width="500" zoomAndPan="magnify" viewBox="0 0 375 374.999991" height="500" preserveAspectRatio="xMidYMid meet" version="1.2"><defs><clipPath id="cdeafb7821"><path d="M 114 141 L 215 141 L 215 257.523438 L 114 257.523438 Z M 114 141 "/></clipPath></defs><g id="433c588720"><g clip-rule="nonzero" clip-path="url(#cdeafb7821)"><path style=" stroke:none;fill-rule:nonzero;fill:#fcc910;fill-opacity:1;" d="M 156.757812 141.015625 C 158.203125 140.964844 159.785156 141.082031 161.332031 141.507812 C 164.402344 142.351562 167.507812 143.03125 170.636719 143.601562 C 173.429688 144.109375 176.175781 144.789062 178.921875 145.496094 C 180.074219 145.796875 181.1875 146.21875 182.269531 146.714844 C 184.011719 147.511719 185.761719 148.292969 187.480469 149.136719 C 190.617188 150.683594 193.542969 152.5625 196.3125 154.699219 C 198.179688 156.140625 199.953125 157.683594 201.617188 159.355469 C 204.789062 162.554688 207.476562 166.117188 209.621094 170.085938 C 211.785156 174.09375 213.320312 178.320312 214.1875 182.785156 C 214.523438 184.515625 214.738281 186.257812 214.859375 188.015625 C 214.933594 189.085938 214.960938 190.15625 214.9375 191.226562 C 214.851562 194.742188 214.347656 198.195312 213.3125 201.566406 C 212.742188 203.417969 212.050781 205.222656 211.1875 206.953125 C 209.9375 209.457031 208.414062 211.800781 206.667969 213.996094 C 205.558594 215.386719 204.375 216.710938 203.152344 218.007812 C 201.542969 219.710938 199.8125 221.269531 198.082031 222.832031 C 197.558594 223.304688 197.027344 223.753906 196.605469 224.34375 C 196.09375 225.058594 195.375 225.601562 194.695312 226.160156 C 193.730469 226.949219 192.851562 227.828125 191.910156 228.640625 C 190.996094 229.425781 190.070312 230.199219 189.160156 230.992188 C 187.902344 232.082031 186.714844 233.234375 185.617188 234.5 C 184.390625 235.910156 183.148438 237.316406 181.800781 238.628906 C 178.035156 242.296875 174.035156 245.679688 169.621094 248.554688 C 166.949219 250.292969 164.128906 251.75 161.191406 252.988281 C 158.238281 254.230469 155.21875 255.28125 152.101562 256.035156 C 151.582031 256.160156 151.054688 256.269531 150.523438 256.351562 C 149.402344 256.515625 148.308594 256.792969 147.203125 257.019531 C 146.167969 257.230469 145.121094 257.308594 144.066406 257.363281 C 143.148438 257.410156 142.234375 257.453125 141.316406 257.464844 C 137.472656 257.515625 133.78125 256.773438 130.179688 255.464844 C 127.808594 254.605469 125.589844 253.457031 123.449219 252.128906 C 122.523438 251.554688 121.789062 250.78125 121.074219 249.980469 C 119.257812 247.9375 117.777344 245.664062 116.445312 243.289062 C 116 242.488281 115.8125 241.609375 115.613281 240.730469 C 115.117188 238.554688 114.910156 236.347656 115.03125 234.125 C 115.15625 231.824219 115.542969 229.5625 116.195312 227.351562 C 116.414062 226.605469 116.902344 226 117.300781 225.347656 C 118.859375 222.804688 120.5 220.304688 121.808594 217.617188 C 122.210938 216.789062 122.558594 215.941406 122.902344 215.089844 C 123.265625 214.1875 123.375 213.242188 123.398438 212.285156 C 123.453125 210.21875 123.320312 208.15625 123.191406 206.09375 C 123.171875 205.765625 123.105469 205.449219 123.007812 205.140625 C 122.65625 204.007812 122.335938 202.871094 121.863281 201.773438 C 121.085938 199.980469 120.507812 198.113281 120.035156 196.21875 C 119.484375 194.011719 118.894531 191.808594 118.535156 189.558594 C 118.152344 187.128906 118.007812 184.6875 118.144531 182.238281 C 118.25 180.382812 118.605469 178.558594 119.109375 176.765625 C 119.308594 176.0625 119.433594 175.347656 119.566406 174.636719 C 119.917969 172.691406 120.5625 170.824219 121.222656 168.96875 C 121.359375 168.585938 121.472656 168.207031 121.5625 167.8125 C 122.167969 165.074219 123.035156 162.425781 124.3125 159.921875 C 125.410156 157.761719 126.757812 155.769531 128.359375 153.949219 C 131.300781 150.605469 134.800781 147.980469 138.707031 145.851562 C 142.316406 143.882812 146.144531 142.507812 150.167969 141.691406 C 152.410156 141.238281 154.367188 140.976562 156.761719 141.03125 Z M 156.757812 141.015625 "/></g><path style=" stroke:none;fill-rule:nonzero;fill:#76432d;fill-opacity:1;" d="M 161.71875 121.167969 C 163.363281 121.152344 164.574219 122.542969 164.289062 124.117188 C 163.988281 125.769531 163.65625 127.417969 163.40625 129.082031 C 163.328125 129.589844 163.269531 130.105469 163.257812 130.621094 C 163.21875 131.804688 163.0625 132.976562 163.160156 134.167969 C 163.273438 135.539062 163.292969 136.917969 163.300781 138.292969 C 163.308594 139.035156 163.191406 139.78125 163.203125 140.527344 C 163.210938 140.820312 163.246094 141.070312 163.457031 141.316406 C 163.773438 141.679688 163.757812 142.085938 163.417969 142.453125 C 163.195312 142.699219 163.121094 142.960938 163.078125 143.273438 C 162.941406 144.316406 162.804688 145.359375 162.5625 146.382812 C 162.496094 146.65625 162.421875 146.933594 162.453125 147.230469 C 162.515625 147.773438 162.210938 148.183594 161.695312 148.121094 C 160.953125 148.03125 160.199219 148.113281 159.464844 147.964844 C 159.273438 147.925781 159.085938 147.886719 158.917969 147.785156 C 158.527344 147.554688 158.425781 147.191406 158.703125 146.824219 C 158.898438 146.5625 158.980469 146.28125 159.03125 145.980469 C 159.449219 143.4375 159.5 140.894531 159.21875 138.328125 C 158.960938 135.980469 158.453125 133.695312 157.839844 131.421875 C 157.464844 130.035156 157.171875 128.628906 157.023438 127.203125 C 156.863281 125.710938 157.402344 124.417969 158.296875 123.265625 C 158.792969 122.632812 159.398438 122.097656 160.101562 121.6875 C 160.625 121.382812 161.183594 121.214844 161.722656 121.167969 Z M 161.71875 121.167969 "/><path style=" stroke:none;fill-rule:nonzero;fill:#c0d311;fill-opacity:1;" d="M 166.492188 134.042969 C 166.492188 134.167969 166.5 134.242188 166.492188 134.3125 C 166.464844 134.574219 166.320312 134.734375 166.074219 134.800781 C 165.828125 134.867188 165.613281 134.785156 165.453125 134.601562 C 165.167969 134.269531 165.113281 133.882812 165.207031 133.46875 C 165.414062 132.515625 165.890625 131.683594 166.441406 130.898438 C 170.054688 125.785156 175.015625 122.796875 181.152344 121.75 C 184.109375 121.242188 187.066406 121.414062 189.996094 122.054688 C 192.625 122.625 195.164062 123.492188 197.683594 124.40625 C 202.289062 126.070312 206.976562 127.40625 211.796875 128.28125 C 212.363281 128.382812 212.925781 128.484375 213.492188 128.59375 C 214.308594 128.753906 215.121094 128.730469 215.949219 128.664062 C 217.609375 128.53125 219.265625 128.441406 220.9375 128.578125 C 222.195312 128.6875 223.457031 128.746094 224.710938 128.925781 C 226.429688 129.167969 228.085938 129.625 229.671875 130.328125 C 230.945312 130.894531 232.308594 131.140625 233.664062 131.359375 C 236.765625 131.863281 239.878906 132.285156 242.980469 132.757812 C 244.269531 132.953125 245.550781 133.1875 246.832031 133.425781 C 247.363281 133.523438 247.894531 133.550781 248.429688 133.5625 C 251.089844 133.636719 253.75 133.75 256.359375 134.359375 C 257.644531 134.660156 258.921875 135.003906 260.03125 135.78125 C 260.253906 135.9375 260.460938 136.101562 260.628906 136.316406 C 261.1875 137.050781 261.105469 137.800781 260.394531 138.386719 C 260.003906 138.707031 259.558594 138.925781 259.085938 139.09375 C 258.285156 139.382812 257.457031 139.527344 256.621094 139.636719 C 254.761719 139.878906 252.890625 140.011719 251.015625 140.121094 C 250.445312 140.160156 249.878906 140.269531 249.308594 140.335938 C 248.222656 140.460938 247.136719 140.558594 246.042969 140.570312 C 245.636719 140.570312 245.242188 140.617188 244.90625 140.890625 C 244.714844 141.050781 244.476562 141.03125 244.246094 141.03125 C 243.25 141.03125 242.253906 141.039062 241.257812 141.03125 C 240.90625 141.027344 240.574219 141.066406 240.285156 141.296875 C 240.0625 141.472656 239.847656 141.484375 239.613281 141.296875 C 239.375 141.117188 239.113281 141.136719 238.859375 141.289062 C 238.695312 141.390625 238.519531 141.46875 238.355469 141.566406 C 238 141.773438 237.640625 141.902344 237.210938 141.828125 C 236.886719 141.769531 236.570312 141.894531 236.257812 141.980469 C 234.6875 142.417969 233.164062 143.015625 231.578125 143.378906 C 229.5 143.855469 227.40625 144.183594 225.261719 144.125 C 224.378906 144.097656 223.507812 143.964844 222.632812 143.871094 C 221.128906 143.710938 219.628906 143.503906 218.128906 143.3125 C 217.632812 143.246094 217.136719 143.160156 216.671875 142.980469 C 215.394531 142.484375 214.058594 142.269531 212.714844 142.050781 C 211.484375 141.847656 210.246094 141.757812 209.003906 141.6875 C 207.417969 141.59375 205.84375 141.351562 204.277344 141.082031 C 202.335938 140.742188 200.394531 140.394531 198.449219 140.058594 C 198.074219 139.992188 197.691406 139.957031 197.3125 139.910156 C 197.054688 139.878906 196.824219 139.976562 196.585938 140.050781 C 196.152344 140.183594 195.933594 140.101562 195.761719 139.683594 C 195.648438 139.394531 195.464844 139.308594 195.191406 139.316406 C 194.175781 139.34375 193.164062 139.230469 192.152344 139.175781 C 190.621094 139.097656 189.097656 138.972656 187.566406 138.878906 C 186.421875 138.808594 185.277344 138.722656 184.132812 138.628906 C 182.53125 138.503906 180.933594 138.339844 179.332031 138.144531 C 177.261719 137.890625 175.199219 137.554688 173.175781 137.019531 C 172.863281 136.9375 172.546875 136.847656 172.242188 136.738281 C 171.714844 136.554688 171.175781 136.472656 170.621094 136.410156 C 169.117188 136.234375 167.855469 135.550781 166.867188 134.390625 C 166.769531 134.277344 166.714844 134.125 166.496094 134.03125 Z M 253.191406 135.179688 C 253.726562 135.460938 254.261719 135.746094 254.804688 136.019531 C 254.898438 136.066406 255.027344 136.074219 255.140625 136.0625 C 255.4375 136.027344 255.460938 135.757812 255.503906 135.550781 C 255.550781 135.34375 255.332031 135.332031 255.191406 135.308594 C 254.539062 135.195312 253.890625 135.042969 253.195312 135.183594 Z M 253.191406 135.179688 "/><path style=" stroke:none;fill-rule:nonzero;fill:#000000;fill-opacity:1;" d="M 165.992188 136.207031 C 165.46875 136.476562 165.394531 137.210938 165.253906 137.757812 C 164.8125 139.667969 164.683594 141.070312 166.847656 141.164062 C 171.609375 141.363281 176.378906 142.109375 180.894531 143.492188 C 193.042969 147 203.910156 155.765625 208.09375 167.914062 C 210.722656 175.214844 210.53125 183.183594 209.582031 190.785156 C 207.851562 206.867188 201.269531 222.375 190.007812 234.144531 C 179.464844 245.847656 164.210938 253.058594 148.496094 254.09375 C 140.613281 254.679688 132.898438 252.347656 125.691406 249.355469 C 114.625 244.203125 112.511719 232.230469 115.617188 221.386719 C 116.578125 218.097656 118.101562 215.015625 120.300781 212.4375 C 121.195312 211.367188 122.238281 210.363281 122.894531 209.132812 C 124.960938 204.992188 122.472656 200.109375 119.925781 196.75 C 118.332031 194.710938 117.128906 192.34375 116.082031 189.984375 C 115.007812 187.496094 113.96875 184.945312 113.53125 182.230469 C 113.195312 179.625 112.882812 176.949219 113.1875 174.335938 C 115.152344 165.039062 123.167969 157.195312 130.726562 151.910156 C 138.492188 146.585938 147.503906 143.046875 156.804688 141.722656 C 158.757812 141.566406 159.703125 140.5625 159.597656 138.628906 C 159.617188 135.019531 159.027344 131.390625 158.136719 127.90625 C 157.5625 125.921875 158.882812 124.441406 160.59375 123.617188 C 161.910156 122.917969 163.996094 121.976562 165.222656 122.675781 C 166.519531 123.472656 166.1875 125.40625 166.53125 126.636719 C 166.839844 127.53125 167.460938 126.785156 167.933594 126.296875 C 170.964844 122.710938 175.175781 120.296875 179.835938 119.417969 C 190.976562 117.265625 194.710938 128.964844 205.375 128.371094 C 211.777344 128.179688 217.839844 124.691406 224.3125 125.859375 C 228.988281 126.675781 233.089844 129.277344 237.722656 130.324219 C 241.324219 131.125 244.871094 131.914062 248.46875 132.632812 C 252.125 133.183594 255.796875 133.105469 259.429688 133.667969 C 262.488281 134.410156 259.589844 135.585938 258.238281 135.957031 C 252.722656 137.804688 247.625 141.117188 241.769531 141.875 C 237.585938 142.277344 233.34375 141.1875 229.203125 142.28125 C 221.566406 144.171875 215.050781 146.535156 207.164062 143.945312 C 203.484375 142.875 200.007812 141.226562 196.304688 140.230469 C 188.507812 137.902344 180.359375 140.089844 172.480469 138.652344 C 170.710938 138.308594 168.921875 137.679688 167.433594 136.683594 C 167.015625 136.421875 166.367188 136.054688 166.039062 136.195312 L 165.996094 136.210938 Z M 163.632812 146.347656 C 164.058594 146.886719 165.480469 146.5 165.613281 147.167969 C 164.6875 148.792969 158.671875 148.175781 157.054688 147.578125 C 156.59375 147.441406 155.132812 146.6875 155.875 146.25 C 156.503906 146.027344 158.097656 146.695312 158.6875 145.832031 C 159.15625 145.304688 159.355469 144.1875 159.097656 143.601562 C 158.777344 142.8125 157.746094 142.875 157 142.972656 C 143.992188 144.863281 131.570312 151.085938 122.5625 160.761719 C 119.117188 164.589844 115.917969 169.023438 114.792969 174.125 C 114.433594 176.929688 114.738281 179.78125 115.164062 182.597656 C 115.738281 185.339844 116.800781 187.949219 117.96875 190.492188 C 118.851562 192.367188 119.832031 194.207031 121.085938 195.839844 C 121.804688 196.789062 122.539062 197.734375 123.097656 198.789062 C 124.703125 201.933594 126.171875 205.914062 124.542969 209.320312 C 123.777344 210.839844 122.496094 212.011719 121.433594 213.324219 C 116.296875 219.691406 114.78125 228.804688 116.691406 236.683594 C 118.421875 243.535156 123.3125 246.933594 129.578125 249.40625 C 132.664062 250.550781 135.828125 251.625 139.097656 252.226562 C 149.757812 254.164062 160.796875 251.488281 170.507812 247.054688 C 179.226562 243.058594 186.628906 236.683594 192.546875 229.199219 C 200.765625 219.304688 205.789062 207.09375 207.65625 194.421875 C 210.386719 178.84375 209.105469 164.203125 196.46875 153.214844 C 194.042969 151.109375 191.324219 149.339844 188.464844 147.875 C 181.632812 144.394531 173.871094 142.554688 166.230469 142.4375 C 165.367188 142.46875 164.660156 142.757812 164.210938 143.449219 C 163.738281 144.304688 163.210938 145.496094 163.605469 146.308594 L 163.636719 146.347656 Z M 210.316406 136.578125 C 210.335938 136.707031 210.523438 136.804688 210.832031 136.871094 C 211.652344 137.019531 212.558594 137.03125 213.402344 137.089844 C 216.515625 137.273438 219.660156 137.164062 222.824219 136.976562 C 224.910156 137.007812 226.503906 135.695312 227.9375 134.34375 C 229.101562 133.3125 230.410156 132.421875 231.5625 131.414062 C 232.144531 130.929688 232.648438 130.125 231.875 129.609375 C 230.425781 128.777344 228.746094 128.289062 227.183594 127.710938 C 225.917969 127.246094 224.566406 127.503906 223.488281 128.289062 C 219.519531 130.882812 215.417969 133.390625 211.289062 135.734375 C 210.953125 135.925781 210.34375 136.253906 210.3125 136.546875 L 210.3125 136.578125 Z M 186.171875 137.546875 C 186.25 137.230469 185.796875 136.828125 185.523438 136.578125 C 183.011719 134.425781 180.328125 132.167969 177.296875 130.558594 C 174.535156 128.917969 170.148438 130.738281 167.679688 132.328125 C 164.921875 134.132812 167.523438 135.863281 169.519531 136.664062 C 173.226562 138.152344 177.316406 138.019531 181.253906 138.007812 C 182.628906 137.972656 184.058594 137.992188 185.421875 137.882812 C 185.8125 137.835938 186.078125 137.742188 186.152344 137.585938 L 186.167969 137.550781 Z M 198.734375 133.933594 C 198.773438 134.1875 199.222656 134.417969 199.835938 134.625 C 200.734375 134.921875 201.679688 135.195312 202.613281 135.441406 C 205.019531 136.054688 207.558594 136.878906 209.777344 135.484375 C 213.046875 133.851562 216.089844 131.816406 219.222656 129.957031 C 220.332031 129.269531 221.511719 128.589844 222.558594 127.828125 C 222.917969 127.546875 223.117188 127.292969 223.0625 127.113281 C 221.601562 125.691406 210.828125 128.828125 208.339844 129.453125 C 205.601562 130.5 202.910156 131.707031 200.21875 132.835938 C 199.75 133.0625 198.777344 133.40625 198.734375 133.890625 Z M 165.355469 127.164062 C 165.257812 125.859375 165.613281 123.542969 164.015625 123.472656 C 163.378906 123.472656 162.746094 123.746094 162.160156 123.984375 C 160.570312 124.636719 159.046875 125.6875 159.410156 127.511719 C 160.503906 132.132812 161.230469 136.9375 160.800781 141.734375 C 160.746094 143.289062 160.355469 144.832031 160.285156 146.367188 C 160.496094 147.796875 161.800781 146.566406 162.042969 145.777344 C 164.011719 139.820312 165.152344 133.503906 165.355469 127.257812 Z M 203.8125 137.089844 C 203.765625 137.484375 204.453125 137.960938 204.761719 138.261719 C 206.714844 139.914062 208.703125 141.53125 210.828125 142.964844 C 214.019531 145.171875 220.101562 143.433594 223.699219 142.601562 C 225.71875 142.078125 224.601562 141.304688 223.371094 140.6875 C 221.675781 139.847656 219.988281 138.738281 218.144531 138.351562 C 213.824219 138.015625 209.398438 138.046875 205.128906 137.089844 C 204.761719 137.019531 203.992188 136.871094 203.828125 137.0625 L 203.8125 137.085938 Z M 246.582031 139.167969 C 246.527344 138.699219 245.503906 138.304688 245.027344 138.078125 C 243.28125 137.308594 241.492188 136.503906 239.5625 136.53125 C 236.617188 136.652344 233.660156 136.828125 230.734375 137.1875 C 227.882812 137.632812 225.144531 137.84375 222.304688 138.070312 C 221.394531 138.128906 220.496094 138.328125 221.695312 139.023438 C 227.503906 142.570312 226.683594 140.996094 232.742188 140.59375 C 236.667969 140.464844 240.703125 141.441406 244.5625 140.203125 C 245.222656 139.980469 246.367188 139.816406 246.582031 139.207031 L 246.582031 139.164062 Z M 193.859375 125.636719 C 193.890625 125.210938 193.226562 124.824219 192.886719 124.550781 C 190.480469 122.949219 187.824219 120.644531 184.800781 120.707031 C 184.003906 120.800781 183.277344 121.226562 182.613281 121.671875 C 180.359375 123.207031 178.324219 125.078125 176.464844 127.039062 C 176.214844 127.3125 175.847656 127.75 175.882812 128.050781 C 175.90625 128.230469 176.085938 128.335938 176.394531 128.378906 C 176.839844 128.441406 177.542969 128.363281 178.171875 128.335938 C 180.015625 128.308594 181.765625 128.222656 183.503906 127.632812 C 186.332031 126.789062 189.203125 126.101562 192.140625 126.015625 C 192.683594 125.960938 193.554688 126.039062 193.847656 125.671875 L 193.859375 125.640625 Z M 177.96875 129.566406 C 177.929688 129.703125 178.09375 129.886719 178.398438 130.105469 C 178.90625 130.460938 179.484375 130.789062 180.007812 131.152344 C 182.558594 132.90625 184.96875 134.953125 187.324219 136.96875 C 188.738281 138.167969 190.617188 138.023438 192.445312 138.269531 C 193.175781 138.351562 193.96875 138.507812 194.628906 138.570312 C 195.09375 138.613281 195.410156 138.558594 195.496094 138.367188 C 195.625 138.085938 195.230469 137.527344 195 137.21875 C 193.378906 135.246094 191.769531 133.097656 189.597656 131.703125 C 187.160156 130.402344 180.484375 128.453125 177.980469 129.535156 Z M 204.691406 129.878906 C 204.5625 129.667969 203.847656 129.632812 203.492188 129.585938 C 201.375 129.378906 199.316406 128.6875 197.40625 127.765625 C 196.398438 127.300781 195.316406 127.058594 194.207031 127.0625 C 191.777344 127.050781 189.308594 127.164062 186.925781 127.667969 C 186.296875 127.816406 183.421875 128.246094 185.132812 128.980469 C 188.433594 130.082031 191.78125 131.34375 195.066406 132.632812 C 195.625 132.84375 196.214844 133.027344 196.804688 133.054688 C 198.316406 133.148438 199.785156 132.128906 201.234375 131.558594 C 202.019531 131.210938 202.804688 130.890625 203.582031 130.570312 C 204.238281 130.300781 204.722656 130.058594 204.695312 129.898438 L 204.691406 129.875 Z M 182.289062 120.347656 C 182.101562 120.089844 181.359375 120.207031 180.960938 120.253906 C 175.054688 121.191406 169.644531 124.710938 166.738281 129.96875 C 166.496094 130.441406 165.511719 132.285156 166.628906 131.886719 C 168.265625 130.949219 169.96875 129.980469 171.816406 129.5 C 172.527344 129.273438 173.226562 129.003906 173.832031 128.566406 C 176.320312 126.359375 178.335938 123.644531 181.0625 121.636719 C 181.445312 121.285156 182.246094 120.84375 182.296875 120.375 Z M 192.648438 133.015625 C 192.542969 133.105469 192.675781 133.363281 192.949219 133.722656 C 193.425781 134.332031 193.957031 134.9375 194.449219 135.574219 C 195.503906 136.824219 196.335938 138.402344 197.671875 139.28125 C 198.140625 139.589844 198.671875 139.816406 199.203125 140.007812 C 202.167969 141.035156 205.089844 142.277344 208.097656 143.128906 C 208.429688 143.222656 209.1875 143.421875 209.320312 143.253906 C 209.410156 143.023438 208.753906 142.550781 208.496094 142.328125 C 206.171875 140.554688 203.949219 138.558594 201.757812 136.679688 C 199.457031 134.945312 196.492188 134.472656 193.898438 133.273438 C 193.5625 133.144531 192.835938 132.878906 192.667969 132.992188 L 192.648438 133.007812 Z M 241.828125 132.644531 C 241.667969 132.253906 240.953125 132.203125 240.539062 132.09375 C 238.847656 131.765625 237.160156 131.378906 235.515625 130.882812 C 234.941406 130.714844 234.320312 130.582031 233.734375 130.710938 C 233.085938 130.847656 232.550781 131.304688 232.074219 131.757812 C 230.84375 132.964844 229.390625 133.945312 228.105469 135.089844 C 227.804688 135.382812 227.257812 135.816406 227.3125 136.21875 C 227.355469 136.363281 227.550781 136.4375 227.855469 136.460938 C 228.648438 136.496094 229.605469 136.316406 230.417969 136.230469 C 232.578125 135.890625 234.878906 135.972656 237.0625 135.539062 C 238.136719 135.28125 239.058594 134.628906 240.015625 134.042969 C 240.59375 133.625 241.628906 133.28125 241.828125 132.675781 L 241.828125 132.640625 Z M 239.921875 135.164062 C 240.050781 135.367188 240.648438 135.332031 240.964844 135.335938 C 245.324219 135.207031 249.785156 135.15625 254.164062 134.660156 C 254.863281 134.550781 254.59375 134.460938 254.019531 134.398438 C 251.0625 134.214844 248.046875 133.949219 245.101562 133.328125 C 243.535156 132.929688 242.136719 133.449219 240.792969 134.359375 C 240.523438 134.53125 239.921875 134.871094 239.917969 135.136719 L 239.925781 135.164062 Z M 244.011719 136.628906 C 244.003906 136.730469 244.230469 136.882812 244.574219 137.054688 C 245.660156 137.542969 246.765625 138.195312 247.957031 138.402344 C 249.175781 138.582031 250.359375 137.816406 251.5 137.363281 C 252.378906 136.90625 253.816406 136.527344 254.503906 135.921875 C 254.449219 135.769531 253.945312 135.839844 253.726562 135.847656 C 250.785156 136.125 247.773438 136.285156 244.8125 136.429688 C 244.5625 136.453125 244.125 136.449219 244.015625 136.605469 Z M 244.011719 136.628906 "/></g></svg>