<svg xmlns="http://www.w3.org/2000/svg" xmlns:xlink="http://www.w3.org/1999/xlink" width="500" zoomAndPan="magnify" viewBox="0 0 375 374.999991" height="500" preserveAspectRatio="xMidYMid meet" version="1.2"><defs><clipPath id="ded05add5a"><path d="M 161.578125 173.277344 L 227.746094 173.277344 L 227.746094 256.269531 L 161.578125 256.269531 Z M 161.578125 173.277344 "/></clipPath><clipPath id="8280ff7213"><path d="M 197.25 177.898438 C 192.148438 181.125 190.949219 183.523438 188.851562 185.476562 C 186 188.101562 180.300781 190.050781 177.75 193.574219 C 175.273438 197.101562 175.726562 202.949219 173.699219 206.625 C 171.976562 209.925781 167.550781 211.949219 167.023438 214.875 C 166.5 217.574219 169.199219 220.5 169.800781 223.351562 C 170.398438 226.050781 169.800781 229.125 170.550781 231.449219 C 171.226562 233.476562 172.425781 235.648438 173.699219 236.625 C 174.601562 237.300781 175.648438 236.925781 176.773438 237.523438 C 178.574219 238.5 181.125 241.800781 182.851562 242.699219 C 183.898438 243.300781 184.648438 242.851562 185.625 243.449219 C 187.5 244.574219 189.074219 248.851562 191.925781 250.199219 C 195.449219 251.851562 203.550781 252.074219 206.101562 250.875 C 207.375 250.351562 207.601562 249.375 208.199219 248.101562 C 209.101562 246.300781 209.023438 242.699219 210.074219 240.898438 C 210.898438 239.476562 212.101562 238.648438 213.375 237.675781 C 214.726562 236.699219 216.675781 236.398438 217.949219 235.125 C 219.449219 233.550781 220.574219 230.851562 221.324219 228.449219 C 222.074219 225.824219 222.148438 223.199219 222.375 219.898438 C 222.675781 215.476562 222.976562 208.800781 222.449219 204.226562 C 222.074219 200.625 221.324219 197.550781 220.125 194.625 C 219.074219 191.925781 218.101562 189.449219 215.851562 187.125 C 212.625 183.976562 204.75 180 201.226562 179.023438 C 199.5 178.5 198 179.398438 197.023438 178.800781 C 196.125 178.273438 195.300781 176.925781 195.449219 176.101562 C 195.523438 175.273438 196.800781 174 197.625 173.851562 C 198.300781 173.699219 199.5 174.074219 199.875 174.675781 C 200.398438 175.273438 200.550781 177 200.175781 177.75 C 199.875 178.425781 198.75 178.949219 198.074219 179.023438 C 197.550781 179.023438 196.949219 178.875 196.5 178.5 C 195.976562 178.125 195.300781 177.074219 195.375 176.324219 C 195.449219 175.574219 196.273438 174.300781 197.324219 173.925781 C 199.351562 173.175781 204.300781 174.824219 207.824219 176.398438 C 212.023438 178.273438 217.574219 181.949219 220.425781 185.101562 C 222.523438 187.351562 223.574219 189.75 224.625 192.375 C 225.75 194.925781 226.5 197.398438 226.949219 200.550781 C 227.625 204.898438 227.550781 211.425781 227.550781 216 C 227.476562 219.675781 227.398438 222.898438 226.949219 225.75 C 226.574219 228 226.273438 229.726562 225.449219 231.75 C 224.550781 234 223.273438 236.699219 221.476562 238.5 C 219.675781 240.375 215.925781 240.675781 214.5 242.625 C 213.074219 244.5 213.449219 247.800781 212.550781 249.898438 C 211.800781 251.625 210.898438 253.5 209.699219 254.398438 C 208.726562 255.148438 207.675781 255.226562 206.101562 255.449219 C 202.949219 255.976562 195.75 256.425781 192.226562 255.601562 C 189.824219 255 187.949219 253.949219 186.601562 252.601562 C 185.398438 251.476562 185.398438 249.375 184.273438 248.398438 C 183.074219 247.425781 181.273438 247.875 179.699219 246.976562 C 177.601562 245.773438 174.824219 242.324219 173.101562 241.273438 C 172.125 240.75 171.449219 240.976562 170.699219 240.523438 C 169.800781 239.925781 168.976562 239.101562 168.148438 237.976562 C 167.101562 236.398438 166.125 234.148438 165.449219 231.75 C 164.625 228.75 165.074219 223.273438 164.25 221.023438 C 163.800781 219.898438 163.050781 219.523438 162.675781 218.625 C 162.226562 217.5 161.773438 216.148438 161.773438 214.800781 C 161.773438 213.226562 161.925781 210.976562 162.898438 209.625 C 163.949219 208.351562 166.351562 208.726562 167.851562 207 C 170.625 203.925781 171.226562 194.175781 174.523438 189.898438 C 177.300781 186.226562 181.949219 184.726562 185.25 182.101562 C 188.324219 179.550781 191.699219 175.648438 193.800781 174.375 C 194.773438 173.773438 195.523438 173.476562 196.273438 173.476562 C 196.800781 173.476562 197.398438 173.699219 197.773438 174.074219 C 198.226562 174.523438 198.601562 175.5 198.523438 176.101562 C 198.375 176.773438 197.25 177.898438 197.25 177.898438 "/></clipPath><clipPath id="27d722cf3f"><path d="M 163.488281 181.375 L 221.484375 181.375 L 221.484375 252.757812 L 163.488281 252.757812 Z M 163.488281 181.375 "/></clipPath><clipPath id="4c4db87dce"><path d="M 221.25 201.601562 C 222.074219 213.148438 216.898438 233.851562 213.824219 233.851562 C 210.601562 233.925781 207.976562 209.773438 203.550781 205.273438 C 201.226562 202.949219 195.601562 202.574219 195.675781 202.5 C 195.675781 202.351562 201.074219 203.476562 203.476562 204.601562 C 205.949219 205.648438 208.273438 207.226562 210.226562 209.023438 C 212.175781 210.898438 213.976562 213.148438 215.25 215.476562 C 216.449219 217.800781 217.425781 220.5 217.875 223.125 C 218.324219 225.75 218.324219 228.601562 217.949219 231.226562 C 217.574219 233.851562 216.675781 236.550781 215.476562 238.949219 C 214.199219 241.273438 212.550781 243.601562 210.601562 245.398438 C 208.648438 247.273438 206.324219 248.925781 203.925781 250.050781 C 201.523438 251.175781 198.824219 251.925781 196.125 252.300781 C 193.5 252.601562 190.648438 252.449219 188.023438 251.925781 C 185.476562 251.324219 182.773438 250.351562 180.523438 249 C 178.199219 247.648438 176.023438 245.773438 174.300781 243.824219 C 172.5 241.800781 171 239.324219 170.023438 236.925781 C 168.976562 234.449219 168.375 231.675781 168.226562 228.976562 C 168 226.351562 168.300781 223.5 168.976562 220.949219 C 169.726562 218.324219 170.851562 215.773438 172.351562 213.523438 C 173.851562 211.351562 175.726562 209.25 177.824219 207.601562 C 180 205.949219 182.476562 204.601562 184.949219 203.773438 C 187.5 202.875 190.273438 202.351562 192.976562 202.351562 C 195.601562 202.351562 198.449219 202.800781 201 203.625 C 203.476562 204.449219 206.023438 205.726562 208.199219 207.300781 C 210.300781 208.949219 212.25 210.976562 213.824219 213.148438 C 215.324219 215.324219 216.523438 217.949219 217.273438 220.5 C 218.023438 223.050781 218.324219 225.824219 218.25 228.523438 C 218.101562 231.148438 217.5 234 216.523438 236.476562 C 215.625 238.949219 214.125 241.425781 212.476562 243.449219 C 210.75 245.476562 208.574219 247.351562 206.324219 248.773438 C 204.074219 250.125 201.375 251.25 198.824219 251.773438 C 196.199219 252.375 193.949219 253.199219 190.726562 252.300781 C 184.875 250.800781 172.5 244.425781 168.226562 237.675781 C 164.101562 231.148438 162.148438 219.976562 165 212.773438 C 168.226562 204.675781 188.023438 191.699219 189.226562 192.75 C 190.273438 193.726562 176.773438 216.375 174.449219 215.851562 C 172.949219 215.476562 173.101562 207.375 173.25 204.148438 C 173.324219 201.898438 173.773438 200.324219 174.375 198.449219 C 174.898438 196.574219 175.800781 194.773438 176.773438 193.125 C 177.824219 191.476562 179.023438 189.898438 180.375 188.550781 C 181.800781 187.199219 183.375 186 185.023438 185.023438 C 186.675781 184.050781 188.476562 183.226562 190.351562 182.625 C 192.226562 182.101562 194.175781 181.726562 196.125 181.648438 C 198 181.574219 200.023438 181.648438 201.898438 182.023438 C 203.851562 182.398438 205.726562 183 207.449219 183.824219 C 209.25 184.574219 210.898438 185.625 212.476562 186.824219 C 213.976562 188.023438 215.398438 189.449219 216.523438 191.023438 C 217.726562 192.523438 218.773438 194.25 219.523438 196.050781 C 220.273438 197.773438 221.25 201.601562 221.25 201.601562 "/></clipPath><clipPath id="4e02c50eee"><path d="M 173 176.433594 L 227.523438 176.433594 L 227.523438 252.277344 L 173 252.277344 Z M 173 176.433594 "/></clipPath><clipPath id="6817f3f083"><path d="M 174.148438 221.175781 C 177.824219 214.5 187.648438 223.273438 187.800781 223.125 C 187.875 222.976562 183.300781 219.976562 181.574219 217.949219 C 179.851562 215.925781 178.351562 213.523438 177.300781 211.050781 C 176.324219 208.648438 175.648438 205.875 175.5 203.175781 C 175.351562 200.550781 175.574219 197.773438 176.324219 195.148438 C 177 192.601562 178.125 190.050781 179.625 187.800781 C 181.050781 185.625 183 183.523438 185.101562 181.875 C 187.199219 180.300781 189.675781 178.949219 192.226562 178.050781 C 194.699219 177.148438 197.476562 176.699219 200.175781 176.625 C 202.800781 176.625 205.574219 177.074219 208.125 177.898438 C 210.675781 178.726562 213.148438 180 215.324219 181.574219 C 217.425781 183.148438 219.375 185.175781 220.875 187.425781 C 222.449219 189.601562 223.648438 192.148438 224.398438 194.699219 C 225.074219 197.25 225.449219 200.023438 225.300781 202.726562 C 225.226562 205.351562 224.625 208.125 223.648438 210.601562 C 222.675781 213.074219 221.25 215.476562 219.601562 217.574219 C 217.875 219.601562 215.773438 221.476562 213.449219 222.824219 C 211.199219 224.25 208.574219 225.300781 206.023438 225.898438 C 203.398438 226.5 200.625 226.648438 197.925781 226.425781 C 195.300781 226.199219 192.601562 225.449219 190.125 224.324219 C 187.726562 223.273438 185.398438 221.699219 183.449219 219.898438 C 181.5 218.101562 179.773438 215.851562 178.5 213.523438 C 177.226562 211.199219 176.25 208.5 175.800781 205.875 C 175.351562 203.25 175.351562 200.476562 175.726562 197.851562 C 176.175781 195.226562 177 192.523438 178.273438 190.125 C 179.476562 187.800781 181.125 185.476562 183.074219 183.675781 C 184.949219 181.800781 187.273438 180.226562 189.675781 179.101562 C 192.074219 177.898438 194.851562 177.148438 197.476562 176.851562 C 200.101562 176.550781 202.949219 176.625 205.5 177.148438 C 208.125 177.75 210.523438 177.976562 213.074219 180.074219 C 217.726562 184.125 225.675781 195.976562 227.101562 204.375 C 228.449219 212.324219 224.324219 222.449219 222.523438 228.976562 C 221.25 233.550781 219.898438 237.375 218.324219 240.226562 C 217.273438 242.175781 216.148438 243.449219 214.800781 244.875 C 213.449219 246.226562 211.875 247.5 210.300781 248.550781 C 208.648438 249.523438 206.851562 250.425781 204.976562 251.023438 C 203.175781 251.625 201.148438 252 199.273438 252.148438 C 197.324219 252.300781 195.300781 252.226562 193.425781 251.925781 C 191.476562 251.550781 189.601562 251.023438 187.800781 250.273438 C 186 249.449219 184.273438 248.476562 182.773438 247.273438 C 181.199219 246.148438 179.773438 244.726562 178.574219 243.226562 C 177.375 241.726562 176.25 240.074219 175.5 238.273438 C 174.675781 236.550781 174 234.675781 173.625 232.726562 C 173.25 230.851562 173.101562 228.824219 173.175781 226.949219 C 173.25 225 174.148438 221.175781 174.148438 221.175781 "/></clipPath><clipPath id="2449d47e8a"><path d="M 170.058594 190.382812 L 221.21875 190.382812 L 221.21875 259.484375 L 170.058594 259.484375 Z M 170.058594 190.382812 "/></clipPath><clipPath id="a2a287164c"><path d="M 220.425781 220.425781 C 218.699219 227.699219 218.476562 226.648438 218.398438 226.648438 C 218.25 226.726562 219.75 231.976562 219.75 234.601562 C 219.75 237.226562 219.300781 240 218.476562 242.476562 C 217.574219 244.949219 216.300781 247.425781 214.726562 249.523438 C 213.074219 251.625 211.050781 253.574219 208.875 255.074219 C 206.699219 256.5 204.148438 257.699219 201.601562 258.449219 C 199.125 259.125 196.273438 259.425781 193.648438 259.273438 C 191.023438 259.125 188.324219 258.523438 185.851562 257.550781 C 183.449219 256.574219 181.050781 255.148438 179.023438 253.425781 C 177 251.773438 175.199219 249.601562 173.851562 247.351562 C 172.425781 245.101562 171.449219 242.476562 170.851562 239.925781 C 170.25 237.375 170.101562 234.523438 170.398438 231.976562 C 170.699219 229.351562 171.449219 226.648438 172.574219 224.25 C 173.625 221.851562 175.199219 219.523438 177 217.574219 C 178.875 215.699219 181.050781 213.976562 183.375 212.773438 C 185.699219 211.5 188.398438 210.601562 190.949219 210.226562 C 193.574219 209.773438 196.351562 209.773438 198.976562 210.226562 C 201.601562 210.601562 204.226562 211.5 206.550781 212.773438 C 208.875 213.976562 211.125 215.699219 212.925781 217.574219 C 214.726562 219.523438 216.300781 221.851562 217.425781 224.175781 C 218.550781 226.574219 219.300781 229.273438 219.601562 231.898438 C 219.898438 234.523438 219.75 237.300781 219.148438 239.925781 C 218.625 242.476562 217.574219 245.101562 216.226562 247.351562 C 214.875 249.601562 213 251.699219 211.050781 253.425781 C 209.023438 255.148438 206.625 256.574219 204.148438 257.550781 C 201.75 258.523438 198.976562 259.125 196.351562 259.273438 C 193.726562 259.425781 190.949219 259.125 188.398438 258.449219 C 185.851562 257.699219 183.300781 256.574219 181.125 255.074219 C 178.949219 253.574219 176.925781 251.699219 175.351562 249.601562 C 173.699219 247.5 172.425781 245.773438 171.601562 242.550781 C 170.101562 236.699219 170.25 223.5 171.300781 216.375 C 172.050781 211.351562 173.699219 206.851562 175.199219 203.699219 C 176.25 201.601562 177.226562 200.324219 178.5 198.824219 C 179.773438 197.398438 181.273438 196.050781 182.851562 194.925781 C 184.425781 193.800781 186.226562 192.898438 188.023438 192.148438 C 189.824219 191.476562 191.773438 191.023438 193.648438 190.726562 C 195.601562 190.5 197.625 190.5 199.5 190.726562 C 201.449219 190.949219 203.398438 191.398438 205.199219 192.074219 C 207.074219 192.75 208.800781 193.648438 210.449219 194.699219 C 212.023438 195.824219 213.523438 197.101562 214.800781 198.601562 C 216.148438 200.023438 217.273438 201.675781 218.175781 203.324219 C 219.074219 205.050781 219.824219 206.925781 220.273438 208.800781 C 220.800781 210.675781 221.023438 212.699219 221.023438 214.574219 C 221.101562 216.523438 220.425781 220.425781 220.425781 220.425781 "/></clipPath><clipPath id="9e019ed527"><path d="M 174.046875 128.449219 L 198.550781 128.449219 L 198.550781 169.722656 L 174.046875 169.722656 Z M 174.046875 128.449219 "/></clipPath><clipPath id="145aff2e25"><path d="M 189.75 168.523438 C 182.699219 159.226562 182.476562 154.5 181.125 150.523438 C 179.699219 146.324219 175.726562 138.074219 176.101562 137.851562 C 176.25 137.773438 177.824219 139.875 177.75 139.875 C 177.675781 139.949219 175.5 138.226562 174.898438 137.398438 C 174.449219 136.800781 174.300781 136.351562 174.226562 135.675781 C 174.074219 134.625 174.148438 132.976562 174.601562 131.851562 C 175.125 130.800781 176.175781 129.675781 177.226562 129.148438 C 178.351562 128.625 179.851562 128.324219 180.976562 128.550781 C 182.175781 128.773438 183.601562 129.675781 184.351562 130.351562 C 184.875 130.800781 185.175781 131.25 185.398438 131.925781 C 185.773438 132.898438 185.925781 134.699219 185.773438 135.675781 C 185.699219 136.425781 185.476562 136.875 185.101562 137.476562 C 184.5 138.300781 183.074219 139.5 182.175781 139.949219 C 181.5 140.25 180.976562 140.324219 180.300781 140.324219 C 179.25 140.324219 177.523438 139.800781 176.625 139.273438 C 176.023438 138.898438 175.648438 138.601562 175.273438 137.925781 C 174.675781 137.101562 174.074219 135.523438 174.074219 134.398438 C 174.074219 133.199219 174.601562 131.699219 175.273438 130.800781 C 176.023438 129.824219 177.523438 129 178.425781 128.699219 C 179.101562 128.398438 179.699219 128.476562 180.375 128.476562 C 180.976562 128.550781 181.574219 128.476562 182.25 128.925781 C 183.601562 129.75 186.148438 132.75 187.199219 134.925781 C 188.101562 136.949219 187.726562 138.976562 188.476562 141.449219 C 189.523438 144.898438 192.449219 150.226562 193.425781 153.375 C 194.101562 155.398438 193.800781 157.199219 194.550781 158.550781 C 195.300781 159.675781 196.875 160.273438 197.550781 161.25 C 198.074219 162 198.449219 162.675781 198.523438 163.574219 C 198.601562 164.699219 198.226562 166.351562 197.699219 167.324219 C 197.25 168.074219 196.648438 168.675781 195.824219 169.050781 C 194.851562 169.574219 193.125 169.800781 192.074219 169.648438 C 191.175781 169.5 189.75 168.523438 189.75 168.523438 "/></clipPath><clipPath id="50b971c6c6"><path d="M 177.042969 120.851562 L 224.28125 120.851562 L 224.28125 175.066406 L 177.042969 175.066406 Z M 177.042969 120.851562 "/></clipPath><clipPath id="9cad2bad16"><path d="M 192.148438 170.25 C 180.976562 166.949219 179.550781 166.199219 178.726562 165.300781 C 178.050781 164.625 177.675781 163.800781 177.449219 162.976562 C 177.226562 162.148438 177.226562 161.101562 177.375 160.273438 C 177.601562 159.449219 177.976562 158.625 178.574219 157.949219 C 179.398438 157.125 180.976562 156.300781 182.101562 156.074219 C 183 155.851562 183.898438 156.074219 184.726562 156.375 C 185.550781 156.675781 185.925781 157.574219 186.898438 157.800781 C 188.25 158.175781 191.175781 158.699219 192.300781 157.425781 C 194.550781 155.023438 191.699219 141.523438 192.074219 138 C 192.226562 136.648438 192.300781 136.050781 192.75 135.226562 C 193.199219 134.398438 193.875 133.574219 194.625 133.125 C 195.375 132.601562 196.351562 132.226562 197.25 132.074219 C 198.226562 132 199.199219 132 200.101562 132.449219 C 201.226562 132.898438 202.648438 134.175781 203.25 135.226562 C 203.773438 136.050781 203.773438 136.800781 203.925781 138 C 204.148438 139.800781 204.226562 142.726562 203.925781 145.199219 C 203.625 147.976562 203.625 152.175781 201.824219 153.824219 C 200.175781 155.324219 196.351562 155.925781 193.949219 154.949219 C 190.949219 153.675781 186.675781 147.75 186.074219 144.523438 C 185.625 142.050781 188.25 137.625 188.175781 137.625 C 188.101562 137.550781 186.449219 142.5 186.226562 142.425781 C 186.074219 142.425781 186 140.550781 186.300781 139.574219 C 186.75 138.375 187.875 136.875 188.851562 136.125 C 189.675781 135.523438 190.648438 135.300781 191.625 135.226562 C 192.523438 135.148438 193.574219 135.226562 194.476562 135.675781 C 195.601562 136.199219 196.648438 137.023438 197.550781 138.601562 C 199.425781 141.976562 201.449219 153.75 201.375 157.199219 C 201.375 158.550781 201.226562 159.074219 200.699219 159.976562 C 200.101562 161.023438 198.824219 162.300781 197.625 162.824219 C 196.351562 163.273438 194.625 163.273438 193.425781 162.824219 C 192.148438 162.375 190.800781 160.875 190.199219 160.050781 C 189.898438 159.601562 189.675781 159.375 189.675781 158.773438 C 189.75 157.425781 192.148438 154.648438 192.601562 152.398438 C 193.050781 150.148438 192.148438 147.449219 192.375 145.273438 C 192.523438 143.324219 192.898438 141.375 193.726562 139.875 C 194.398438 138.675781 195.449219 137.398438 196.648438 136.875 C 197.851562 136.351562 199.648438 136.273438 200.851562 136.574219 C 201.824219 136.800781 202.648438 137.398438 203.324219 138 C 203.925781 138.675781 204.300781 139.125 204.824219 140.398438 C 206.175781 144.300781 209.699219 160.273438 208.351562 165.375 C 207.601562 168 205.949219 169.875 204.074219 170.625 C 202.050781 171.375 196.5 170.101562 196.425781 169.425781 C 196.351562 168.824219 201.300781 166.5 201.675781 166.875 C 201.976562 167.25 199.648438 170.476562 198.148438 171.75 C 196.726562 173.023438 194.625 174.226562 192.898438 174.601562 C 191.25 174.898438 189.300781 174.523438 188.023438 174 C 187.050781 173.625 186.375 172.875 185.851562 172.125 C 185.324219 171.375 184.875 170.398438 184.726562 169.425781 C 184.648438 168.523438 184.726562 167.476562 185.023438 166.574219 C 185.398438 165.675781 185.925781 164.773438 186.675781 164.175781 C 187.351562 163.5 188.023438 163.199219 189.226562 162.75 C 191.175781 162 194.699219 161.175781 197.773438 160.800781 C 201.148438 160.425781 208.351562 159.75 208.726562 160.726562 C 209.023438 161.476562 205.125 164.851562 204.601562 164.476562 C 203.773438 163.949219 206.773438 154.050781 209.25 150.074219 C 211.574219 146.324219 216.074219 140.851562 218.773438 140.925781 C 220.800781 140.925781 223.351562 144.523438 223.949219 146.550781 C 224.398438 148.273438 223.726562 149.851562 222.976562 151.875 C 221.925781 155.023438 218.175781 159.75 216.898438 163.273438 C 215.925781 165.976562 216.074219 169.050781 215.324219 170.851562 C 214.800781 171.976562 214.425781 172.726562 213.601562 173.324219 C 212.625 174.148438 210.75 174.898438 209.476562 174.976562 C 208.425781 175.050781 207.449219 174.75 206.625 174.300781 C 205.726562 173.851562 204.898438 173.25 204.300781 172.351562 C 203.625 171.300781 203.101562 168.074219 203.25 168.074219 C 203.398438 168 205.800781 173.023438 205.574219 173.101562 C 205.425781 173.175781 202.574219 170.023438 201.601562 167.851562 C 200.324219 164.851562 199.949219 160.5 199.574219 156.300781 C 199.125 151.125 199.949219 144.300781 199.574219 138.976562 C 199.199219 134.398438 197.324219 129.226562 197.773438 126.375 C 198.074219 124.726562 198.675781 123.675781 199.574219 122.773438 C 200.476562 121.875 202.125 121.199219 203.175781 120.976562 C 203.925781 120.824219 204.449219 120.824219 205.199219 121.050781 C 206.25 121.351562 207.898438 122.25 208.648438 123 C 209.25 123.523438 209.550781 123.976562 209.773438 124.726562 C 210.074219 125.773438 210.300781 127.648438 210.074219 128.699219 C 210 129.449219 209.773438 129.976562 209.25 130.574219 C 208.648438 131.476562 207.148438 132.675781 206.175781 133.125 C 205.5 133.425781 204.898438 133.5 204.148438 133.5 C 203.101562 133.425781 201.375 133.050781 200.324219 132.300781 C 199.273438 131.550781 198.375 130.273438 198 129.074219 C 197.625 127.800781 197.699219 126.226562 198.074219 125.023438 C 198.523438 123.824219 199.574219 122.625 200.625 121.875 C 201.675781 121.199219 203.25 120.824219 204.523438 120.976562 C 205.800781 121.050781 207.300781 121.875 208.199219 122.550781 C 208.800781 123 209.101562 123.375 209.476562 124.125 C 210.148438 125.25 210.824219 127.351562 211.199219 129.148438 C 211.726562 131.175781 211.875 132.75 212.101562 135.75 C 212.398438 141.898438 210.074219 158.699219 211.875 164.25 C 212.699219 166.875 215.476562 167.773438 215.625 169.425781 C 215.773438 170.773438 214.5 172.425781 213.601562 173.324219 C 212.925781 174.074219 211.949219 174.523438 210.976562 174.75 C 210.074219 175.050781 209.023438 175.125 207.976562 174.824219 C 206.773438 174.449219 205.125 173.476562 204.300781 172.351562 C 203.550781 171.226562 203.25 169.726562 203.25 168.074219 C 203.25 165.75 204.300781 162.601562 205.425781 159.601562 C 206.851562 155.851562 209.324219 147.976562 211.574219 147.601562 C 213.074219 147.300781 214.425781 151.425781 216.300781 151.648438 C 218.324219 151.875 222.375 147.226562 223.199219 147.976562 C 224.773438 149.324219 218.476562 166.949219 214.273438 170.625 C 211.574219 172.949219 208.273438 172.351562 204.75 172.949219 C 200.25 173.699219 192.375 175.050781 189.449219 174.523438 C 188.175781 174.300781 187.574219 173.851562 186.824219 173.175781 C 186.074219 172.574219 185.476562 171.75 185.101562 170.851562 C 184.800781 169.949219 184.648438 168.898438 184.726562 168 C 184.800781 167.023438 185.175781 166.050781 185.699219 165.226562 C 186.226562 164.476562 187.050781 163.726562 187.800781 163.273438 C 188.625 162.824219 190.425781 162.300781 190.648438 162.523438 C 190.726562 162.675781 190.425781 163.199219 190.5 163.199219 C 190.648438 163.273438 192.074219 159.375 193.574219 158.625 C 195.375 157.800781 200.773438 158.398438 201 159.226562 C 201.226562 159.898438 197.550781 163.050781 196.574219 162.675781 C 195.375 162.300781 195.449219 158.398438 195 155.550781 C 194.398438 151.351562 192.898438 142.726562 193.726562 139.875 C 194.023438 138.675781 194.625 138.226562 195.449219 137.625 C 196.425781 136.949219 198.074219 136.273438 199.425781 136.351562 C 200.699219 136.425781 202.351562 137.101562 203.324219 138 C 204.226562 138.898438 204.898438 140.175781 205.050781 141.824219 C 205.425781 144.75 203.699219 150.675781 202.425781 154.273438 C 201.375 157.273438 198.523438 162.074219 198.449219 162.074219 C 198.375 162 200.925781 155.699219 201.148438 155.773438 C 201.449219 155.851562 201.300781 158.773438 200.699219 159.976562 C 200.101562 161.101562 198.824219 162.300781 197.625 162.824219 C 196.351562 163.273438 194.550781 163.199219 193.425781 162.824219 C 192.449219 162.523438 191.625 161.925781 191.023438 161.25 C 190.425781 160.574219 190.125 159.976562 189.675781 158.773438 C 188.550781 155.699219 186.300781 146.101562 186.226562 142.425781 C 186.148438 140.625 186.375 139.351562 186.898438 138.226562 C 187.351562 137.324219 188.023438 136.648438 188.851562 136.125 C 189.976562 135.523438 191.851562 135.148438 193.050781 135.226562 C 194.101562 135.375 195 135.824219 195.75 136.351562 C 196.5 136.949219 197.023438 137.625 197.550781 138.601562 C 198.300781 140.023438 200.023438 143.101562 199.273438 144.226562 C 198.449219 145.5 193.273438 146.324219 192.074219 145.199219 C 190.726562 144 191.550781 138.675781 192.226562 136.574219 C 192.75 135.074219 193.648438 133.800781 194.625 133.125 C 195.449219 132.449219 196.351562 132.226562 197.25 132.074219 C 198.226562 132 199.273438 132.074219 200.101562 132.449219 C 200.925781 132.75 201.824219 133.273438 202.425781 134.023438 C 203.175781 135 203.625 136.273438 203.925781 138 C 204.375 140.699219 204.300781 145.425781 203.773438 149.25 C 203.175781 153.523438 202.5 159 200.398438 162.375 C 198.601562 165.148438 196.125 167.925781 193.050781 168.675781 C 189.226562 169.648438 180.824219 166.949219 178.726562 165.300781 C 177.75 164.625 177.675781 163.800781 177.449219 162.976562 C 177.226562 162.148438 177.148438 161.175781 177.375 160.273438 C 177.75 159.226562 178.574219 157.726562 179.625 157.050781 C 180.601562 156.300781 181.800781 155.925781 183.375 156.074219 C 186.523438 156.148438 194.398438 159.226562 196.574219 160.800781 C 197.476562 161.550781 197.851562 162 198.148438 162.898438 C 198.523438 163.875 198.675781 165.523438 198.300781 166.648438 C 197.925781 167.773438 196.949219 169.050781 195.898438 169.648438 C 194.851562 170.25 192.148438 170.25 192.148438 170.25 "/></clipPath><clipPath id="cf03d08d0f"><path d="M 146.128906 112.5 L 228.628906 112.5 L 228.628906 262.5 L 146.128906 262.5 Z M 146.128906 112.5 "/></clipPath></defs><g id="11d504dfae"><g clip-rule="nonzero" clip-path="url(#ded05add5a)"><g clip-rule="nonzero" clip-path="url(#8280ff7213)"><path style=" stroke:none;fill-rule:nonzero;fill:#ffff00;fill-opacity:1;" d="M 158.773438 170.476562 L 230.550781 170.476562 L 230.550781 258.511719 L 158.773438 258.511719 Z M 158.773438 170.476562 "/></g></g><g clip-rule="nonzero" clip-path="url(#27d722cf3f)"><g clip-rule="nonzero" clip-path="url(#4c4db87dce)"><path style=" stroke:none;fill-rule:nonzero;fill:#ffff00;fill-opacity:1;" d="M 162 178.648438 L 225.449219 178.648438 L 225.449219 255.484375 L 162 255.484375 Z M 162 178.648438 "/></g></g><g clip-rule="nonzero" clip-path="url(#4e02c50eee)"><g clip-rule="nonzero" clip-path="url(#6817f3f083)"><path style=" stroke:none;fill-rule:nonzero;fill:#ffff00;fill-opacity:1;" d="M 170.175781 173.625 L 230.101562 173.625 L 230.101562 255.085938 L 170.175781 255.085938 Z M 170.175781 173.625 "/></g></g><g clip-rule="nonzero" clip-path="url(#2449d47e8a)"><g clip-rule="nonzero" clip-path="url(#a2a287164c)"><path style=" stroke:none;fill-rule:nonzero;fill:#ffff00;fill-opacity:1;" d="M 167.398438 187.726562 L 224.101562 187.726562 L 224.101562 262.367188 L 167.398438 262.367188 Z M 167.398438 187.726562 "/></g></g><g clip-rule="nonzero" clip-path="url(#9e019ed527)"><g clip-rule="nonzero" clip-path="url(#145aff2e25)"><path style=" stroke:none;fill-rule:nonzero;fill:#03d93b;fill-opacity:1;" d="M 171.074219 125.476562 L 201.523438 125.476562 L 201.523438 172.695312 L 171.074219 172.695312 Z M 171.074219 125.476562 "/></g></g><g clip-rule="nonzero" clip-path="url(#50b971c6c6)"><g clip-rule="nonzero" clip-path="url(#9cad2bad16)"><path style=" stroke:none;fill-rule:nonzero;fill:#03d93b;fill-opacity:1;" d="M 174.375 117.976562 L 226.949219 117.976562 L 226.949219 178.148438 L 174.375 178.148438 Z M 174.375 117.976562 "/></g></g><g clip-rule="nonzero" clip-path="url(#cf03d08d0f)"><path style=" stroke:none;fill-rule:nonzero;fill:#000000;fill-opacity:1;" d="M 225.253906 219.632812 C 225.230469 220.601562 225.082031 221.917969 225.726562 222.761719 C 226.175781 223.339844 226.957031 223.398438 227.464844 222.84375 C 228.191406 222.058594 228.261719 220.589844 228.386719 219.597656 C 228.570312 218.199219 228.628906 216.789062 228.523438 215.378906 C 228.375 213.253906 228.03125 210.738281 226.601562 209.039062 C 226.648438 207.050781 226.542969 205.054688 225.863281 203.171875 C 225.035156 200.882812 223.480469 198.894531 221.441406 197.566406 C 219.449219 196.273438 217.050781 195.671875 214.691406 196.089844 C 212.203125 196.527344 209.574219 197.671875 207.570312 199.207031 C 207.316406 199.402344 206.984375 199.667969 206.628906 199.980469 C 204.542969 196.539062 200.601562 194.679688 196.582031 194.539062 C 192.953125 194.414062 189.394531 195.671875 186.617188 197.984375 C 186.25 197.476562 185.824219 197 185.433594 196.5625 C 184.648438 195.671875 183.773438 194.875 182.816406 194.171875 C 180.949219 192.808594 178.691406 191.871094 176.367188 191.847656 C 174.9375 191.835938 173.488281 192.148438 172.183594 192.75 C 172.691406 191.027344 173.246094 189.320312 173.96875 187.714844 C 174.960938 185.53125 176.90625 183.164062 179.535156 183.183594 C 180.917969 183.195312 181.976562 184.191406 182.308594 185.507812 C 182.308594 185.519531 182.308594 185.519531 182.308594 185.53125 C 182.289062 185.554688 182.265625 185.566406 182.242188 185.589844 C 181.285156 186.363281 180.421875 187.285156 179.730469 188.3125 C 179.257812 189.019531 178.496094 190.152344 178.84375 191.050781 C 179.199219 191.953125 180.214844 191.652344 180.777344 191.179688 C 181.628906 190.472656 182.34375 189.480469 182.746094 188.441406 C 183.070312 187.632812 183.175781 186.707031 183.046875 185.832031 C 183.175781 185.738281 183.300781 185.644531 183.425781 185.566406 C 185.476562 184.15625 188.183594 184.363281 190.464844 185.078125 C 192.757812 185.796875 194.75 187.355469 196.050781 189.378906 C 195.140625 190.464844 194.496094 191.816406 194.992188 193.144531 C 195.292969 193.941406 196.132812 194.425781 196.941406 194.03125 C 197.90625 193.570312 198.046875 192.425781 197.804688 191.492188 C 197.609375 190.75 197.320312 190.058594 196.949219 189.398438 C 200.753906 185.378906 206.949219 184.746094 211.417969 188.015625 C 211.695312 188.222656 211.972656 188.429688 212.226562 188.660156 C 211.9375 189.585938 212.214844 190.636719 212.445312 191.539062 C 212.617188 192.230469 212.824219 192.910156 213.054688 193.582031 C 213.203125 194.03125 213.367188 194.53125 213.734375 194.863281 C 214.320312 195.394531 215.117188 195.152344 215.449219 194.484375 C 215.898438 193.570312 215.554688 192.378906 215.1875 191.503906 C 214.714844 190.382812 213.964844 189.367188 213.078125 188.511719 C 213.539062 187.726562 214.519531 187.34375 215.496094 187.414062 C 218.007812 187.585938 219.851562 189.910156 220.796875 192.046875 C 221.070312 192.65625 221.28125 193.304688 221.417969 193.964844 C 221.554688 194.609375 221.542969 195.292969 221.730469 195.925781 C 221.960938 196.734375 222.753906 197.53125 223.652344 197.117188 C 224.6875 196.632812 224.527344 195.359375 224.34375 194.449219 C 224.101562 193.234375 223.757812 192.046875 223.328125 190.890625 C 222.5 188.648438 221.359375 186.523438 219.933594 184.617188 C 218.503906 182.722656 216.820312 181.035156 214.898438 179.660156 C 212.941406 178.265625 210.484375 176.808594 207.976562 177.097656 C 206.179688 177.292969 204.832031 178.355469 204.242188 179.917969 C 203.042969 178.621094 201.453125 177.675781 199.738281 177.269531 C 197.597656 176.773438 195.269531 177.214844 193.449219 178.449219 C 193.136719 178.65625 192.746094 178.96875 192.355469 179.351562 C 191.296875 177.976562 189.683594 177.027344 188 176.636719 C 186.953125 176.394531 185.871094 176.382812 184.796875 176.53125 C 186.386719 174.949219 188.21875 173.609375 190.476562 173.167969 C 191.835938 172.902344 192.757812 173.445312 193.96875 173.945312 C 195.132812 174.40625 196.214844 174.265625 197.355469 173.792969 C 198.769531 173.203125 200.0625 172.71875 201.617188 172.859375 C 202.917969 172.972656 204 173.480469 205.015625 174.265625 C 206.429688 175.363281 207.8125 176.449219 209.65625 175.640625 C 211.855469 174.683594 213.078125 172.175781 214.519531 170.386719 C 217.835938 166.261719 221.878906 162.761719 226.417969 160.035156 C 226.773438 159.828125 226.519531 159.34375 226.152344 159.398438 C 218.953125 160.554688 212.710938 164.644531 207.351562 169.449219 C 209.011719 166.25 210.855469 163.15625 212.882812 160.1875 C 213.746094 159.398438 214.632812 158.636719 215.519531 157.886719 C 214.539062 160.070312 213.550781 162.242188 212.546875 164.414062 C 212.398438 164.75 212.800781 165.140625 213.089844 164.828125 C 217.824219 159.664062 222.558594 154.503906 227.304688 149.339844 C 227.558594 149.0625 227.234375 148.574219 226.890625 148.796875 C 223.582031 150.839844 220.402344 153.082031 217.351562 155.496094 C 217.765625 154.570312 218.167969 153.660156 218.582031 152.734375 C 218.675781 152.628906 218.769531 152.527344 218.847656 152.410156 C 218.964844 152.285156 218.964844 152.132812 218.894531 152.019531 C 221.289062 146.601562 223.617188 141.148438 225.785156 135.625 C 225.921875 135.28125 225.4375 135.070312 225.207031 135.292969 C 219.621094 140.535156 214.4375 146.195312 209.679688 152.203125 C 210.335938 149.523438 211.027344 146.84375 211.683594 144.164062 C 211.789062 143.757812 211.28125 143.597656 211.050781 143.898438 C 210.796875 144.234375 210.542969 144.578125 210.289062 144.914062 C 211.789062 139.96875 212.628906 134.863281 213.574219 129.78125 C 213.640625 129.410156 213.148438 129.15625 212.941406 129.515625 C 210.519531 133.71875 208.195312 137.972656 205.9375 142.257812 C 207.03125 135.660156 207.308594 128.902344 207.339844 122.238281 C 207.339844 121.890625 206.867188 121.765625 206.695312 122.066406 C 205.28125 124.46875 203.964844 126.9375 202.78125 129.457031 C 202.734375 123.96875 202.375 118.496094 201.683594 113.054688 C 201.640625 112.695312 201.121094 112.558594 201.003906 112.960938 C 199.070312 119.9375 198.265625 127.136719 197.6875 134.34375 C 197.503906 134.773438 197.320312 135.1875 197.136719 135.613281 C 195.625 129.539062 194.3125 123.449219 193.253906 117.316406 C 193.183594 116.914062 192.597656 117.039062 192.574219 117.410156 C 192.054688 125.332031 193.300781 133.164062 194.992188 140.894531 C 194.761719 141.496094 194.53125 142.09375 194.300781 142.683594 C 192.378906 136.34375 190.210938 130.070312 187.816406 123.890625 C 187.691406 123.554688 187.078125 123.566406 187.136719 123.980469 C 188.105469 131.351562 189.070312 138.734375 190.027344 146.105469 C 189.105469 144.542969 188.128906 143.007812 187.078125 141.519531 C 186.871094 141.21875 186.320312 141.390625 186.445312 141.785156 C 186.800781 142.914062 187.148438 144.058594 187.472656 145.203125 C 184.972656 140.039062 182.277344 134.980469 179.382812 130.023438 C 179.222656 129.746094 178.691406 129.839844 178.738281 130.195312 C 179.328125 134.910156 180.085938 139.589844 181.019531 144.242188 C 181.433594 146.3125 181.839844 148.390625 182.34375 150.457031 C 180.351562 148.414062 178.199219 146.507812 175.917969 144.765625 C 175.582031 144.511719 175.261719 145.03125 175.503906 145.308594 C 179.0625 149.476562 181.378906 154.375 183.058594 159.515625 C 181.191406 158.128906 179.121094 157.019531 176.828125 156.316406 C 176.5625 156.234375 176.25 156.582031 176.433594 156.824219 C 180.097656 161.734375 183.277344 166.976562 186.25 172.328125 C 186.445312 172.683594 186.953125 172.429688 186.882812 172.0625 C 186.167969 168.539062 185.398438 164.96875 184.371094 161.492188 C 187.207031 164.042969 189.519531 167.242188 191.386719 170.535156 C 191.582031 170.871094 192.125 170.652344 192.019531 170.269531 C 191.03125 166.898438 190.050781 163.511719 189.058594 160.140625 C 189.070312 160.105469 189.082031 160.070312 189.09375 160.023438 C 189.75 161.039062 190.375 162.070312 190.960938 163.121094 C 191.121094 163.398438 191.640625 163.292969 191.605469 162.945312 C 191.421875 161.261719 191.203125 159.585938 190.9375 157.910156 C 192.863281 161.664062 194.210938 165.707031 194.933594 169.890625 C 195.003906 170.304688 195.582031 170.15625 195.613281 169.796875 C 195.949219 166.78125 196.132812 163.742188 196.167969 160.71875 C 196.871094 162.601562 197.527344 164.507812 198.136719 166.433594 C 198.21875 166.6875 198.644531 166.816406 198.769531 166.515625 C 199.046875 165.871094 199.335938 165.210938 199.625 164.574219 C 200.164062 166.410156 200.625 168.273438 200.996094 170.15625 C 201.0625 170.535156 201.71875 170.457031 201.675781 170.0625 C 201.59375 169.425781 202.089844 168.710938 202.398438 168.203125 C 202.824219 167.488281 203.320312 166.804688 203.804688 166.125 C 204.75 164.804688 205.683594 163.511719 206.730469 162.289062 C 206.488281 163.523438 206.269531 164.761719 206.0625 165.996094 C 206.015625 166.308594 206.386719 166.609375 206.636719 166.332031 C 207.964844 164.898438 209.335938 163.511719 210.738281 162.171875 C 208.964844 164.957031 207.339844 167.832031 205.890625 170.800781 C 205.71875 171.148438 206.132812 171.507812 206.429688 171.21875 C 211.570312 166.367188 217.535156 162.046875 224.480469 160.417969 C 220.714844 162.890625 217.316406 165.914062 214.4375 169.382812 C 213.652344 170.316406 212.941406 171.296875 212.214844 172.28125 C 211.453125 173.332031 210.613281 174.429688 209.402344 174.960938 C 207.328125 175.875 205.9375 173.816406 204.324219 172.902344 C 202.167969 171.691406 199.703125 171.992188 197.527344 172.925781 C 196.894531 173.203125 196.226562 173.503906 195.523438 173.515625 C 194.855469 173.527344 194.265625 173.285156 193.679688 173.007812 C 192.710938 172.558594 191.835938 172.234375 190.753906 172.382812 C 188.390625 172.707031 186.308594 174.058594 184.613281 175.6875 C 184.269531 176.023438 183.933594 176.371094 183.613281 176.726562 C 182.828125 176.9375 182.078125 177.234375 181.367188 177.59375 C 180.445312 178.066406 176.425781 180.714844 178.460938 181.9375 C 179.40625 182.503906 180.28125 181.648438 180.882812 180.992188 C 181.847656 179.917969 182.738281 178.773438 183.679688 177.6875 C 183.773438 177.570312 183.875 177.46875 183.980469 177.351562 C 184.394531 177.246094 184.808594 177.179688 185.222656 177.121094 C 187.585938 176.855469 190.074219 177.652344 191.640625 179.5 C 191.722656 179.59375 191.800781 179.695312 191.871094 179.789062 C 190.9375 180.828125 190.222656 182.144531 190.925781 183.207031 C 191.421875 183.949219 192.425781 183.84375 192.988281 183.265625 C 193.761719 182.480469 193.460938 181.289062 193.035156 180.414062 C 192.941406 180.226562 192.851562 180.054688 192.734375 179.871094 C 192.78125 179.824219 192.828125 179.777344 192.886719 179.730469 C 194.589844 178.089844 197.125 177.375 199.4375 177.871094 C 201.246094 178.265625 202.835938 179.269531 204.023438 180.667969 C 203.988281 180.839844 203.964844 181.023438 203.941406 181.210938 C 203.863281 182.132812 203.863281 183.613281 204.449219 184.398438 C 204.886719 184.988281 205.738281 184.964844 206.132812 184.339844 C 206.859375 183.195312 205.453125 181.394531 204.808594 180.539062 C 204.796875 180.515625 204.785156 180.503906 204.761719 180.492188 C 204.96875 179.671875 205.382812 178.933594 206.109375 178.425781 C 207.203125 177.664062 208.609375 177.570312 209.875 177.859375 C 212.28125 178.414062 214.5625 180.066406 216.371094 181.695312 C 219.910156 184.882812 222.398438 189.179688 223.492188 193.8125 C 223.640625 194.425781 223.917969 195.246094 223.757812 195.871094 C 223.664062 196.214844 223.386719 196.609375 222.867188 196.402344 C 222.707031 196.332031 222.558594 196.101562 222.488281 195.949219 C 222.292969 195.59375 222.28125 195.128906 222.234375 194.738281 C 222.097656 193.628906 221.796875 192.554688 221.324219 191.539062 C 220.460938 189.664062 219 187.78125 217.039062 187.019531 C 215.53125 186.429688 213.457031 186.523438 212.511719 187.96875 C 211.914062 187.460938 211.257812 187.007812 210.589844 186.640625 C 206.339844 184.269531 201.203125 184.847656 197.46875 187.921875 C 197.167969 188.164062 196.859375 188.441406 196.546875 188.753906 C 194.671875 185.957031 191.316406 184.179688 188.046875 183.855469 C 186.101562 183.660156 184.417969 184.039062 182.863281 185.078125 C 182.574219 184.144531 181.976562 183.324219 181.042969 182.839844 C 179.316406 181.949219 177.253906 182.792969 175.835938 183.914062 C 173.957031 185.390625 173.058594 187.726562 172.347656 189.929688 C 172 191.007812 171.667969 192.082031 171.332031 193.15625 C 171.054688 193.316406 170.78125 193.488281 170.515625 193.6875 C 169.222656 194.632812 167.324219 196.644531 167.75 198.433594 C 167.933594 199.230469 168.71875 199.613281 169.464844 199.289062 C 170.550781 198.828125 170.757812 197.289062 171.066406 196.308594 C 171.34375 195.429688 171.597656 194.539062 171.863281 193.652344 C 176.066406 191.339844 180.847656 192.980469 184.105469 196.191406 C 184.785156 196.863281 185.5 197.601562 186.054688 198.421875 C 185.902344 198.550781 185.765625 198.6875 185.628906 198.828125 C 184.9375 199.507812 183.691406 200.859375 184.554688 201.851562 C 185.027344 202.394531 185.859375 202.511719 186.492188 202.199219 C 187.4375 201.726562 187.679688 200.59375 187.425781 199.636719 C 187.332031 199.265625 187.160156 198.894531 186.964844 198.5625 C 187.089844 198.457031 187.230469 198.339844 187.355469 198.238281 C 190.847656 195.488281 195.546875 194.507812 199.820312 195.742188 C 202.179688 196.421875 204.277344 197.808594 205.648438 199.878906 C 205.761719 200.0625 205.902344 200.257812 206.039062 200.476562 C 204.832031 201.667969 203.710938 203.261719 204.886719 204.464844 C 205.542969 205.132812 206.523438 204.878906 207.085938 204.234375 C 207.746094 203.480469 207.722656 202.558594 207.386719 201.65625 C 207.25 201.296875 207.097656 200.953125 206.925781 200.617188 C 208.550781 199.105469 210.542969 198.074219 212.640625 197.335938 C 215.140625 196.46875 217.652344 196.367188 220.058594 197.589844 C 222.363281 198.757812 224.183594 200.8125 225.105469 203.226562 C 225.726562 204.878906 225.875 206.613281 225.875 208.367188 C 223.054688 206.09375 218.296875 207.664062 215.910156 209.871094 C 215.3125 210.425781 214.75 211.082031 214.289062 211.8125 C 213.90625 211.070312 213.457031 210.378906 213.019531 209.765625 C 211.730469 208.011719 209.992188 206.40625 207.929688 205.640625 C 203.679688 204.070312 198.527344 205.664062 195.292969 208.691406 C 194.613281 207.523438 193.597656 206.496094 192.609375 205.722656 C 190.648438 204.199219 188.300781 203.515625 185.835938 203.585938 C 182.726562 203.667969 179.28125 204.648438 176.976562 206.820312 C 176.929688 206.683594 176.875 206.554688 176.828125 206.417969 C 175.976562 204.265625 174.8125 202.328125 172.632812 201.34375 C 170.78125 200.5 168.683594 200.605469 166.976562 201.761719 C 163.546875 204.09375 163.511719 208.863281 163.832031 212.550781 C 163.890625 213.183594 163.960938 213.820312 164.019531 214.457031 C 163.683594 214.734375 163.371094 215.058594 163.121094 215.449219 C 162.578125 216.28125 162.3125 217.332031 162.496094 218.324219 C 162.636719 219.066406 163.246094 220.152344 164.15625 219.734375 C 165.066406 219.332031 164.894531 217.886719 164.882812 217.113281 C 164.859375 216.339844 164.800781 215.566406 164.730469 214.792969 C 166.101562 213.925781 168.0625 213.960938 169.582031 214.640625 C 170.421875 215.023438 171.273438 215.554688 171.875 216.28125 C 171.480469 216.675781 171.113281 217.101562 170.792969 217.5625 C 170.285156 218.304688 169.671875 219.433594 170.261719 220.300781 C 170.734375 220.996094 171.734375 220.996094 172.347656 220.496094 C 173.140625 219.863281 173.40625 218.660156 173.269531 217.691406 C 173.199219 217.21875 173.027344 216.777344 172.785156 216.375 C 173.648438 215.632812 174.648438 215.058594 175.734375 214.710938 C 178.441406 213.832031 181.421875 214.722656 183.773438 216.164062 C 184.890625 216.859375 185.914062 217.703125 186.847656 218.636719 C 186.917969 218.707031 186.988281 218.777344 187.054688 218.847656 C 186.90625 219.042969 186.769531 219.261719 186.640625 219.480469 C 186.214844 220.289062 186.007812 221.628906 187.078125 222.058594 C 187.910156 222.390625 188.738281 221.582031 188.820312 220.785156 C 188.898438 220.035156 188.472656 219.390625 187.976562 218.824219 C 188.609375 218.164062 189.40625 217.65625 190.15625 217.171875 C 191.339844 216.398438 192.6875 215.898438 194.105469 215.785156 C 196.5 215.578125 198.933594 216.328125 200.960938 217.574219 C 202.007812 218.222656 202.964844 219.007812 203.792969 219.933594 C 203.898438 220.046875 204.046875 220.21875 204.230469 220.453125 C 203.875 220.9375 203.621094 221.492188 203.527344 222.105469 C 203.402344 222.890625 203.574219 223.800781 204.414062 224.101562 C 205.175781 224.378906 205.992188 223.847656 206.144531 223.0625 C 206.304688 222.171875 205.671875 221.214844 205.117188 220.484375 C 205.832031 219.722656 206.800781 219.167969 207.777344 218.8125 C 211.476562 217.460938 216.359375 218.601562 218.46875 222.113281 C 219.054688 223.097656 219.355469 224.230469 219.355469 225.371094 C 219.078125 225.476562 218.8125 225.605469 218.550781 225.730469 C 217.535156 226.214844 216.359375 226.78125 215.484375 227.488281 C 214.757812 228.074219 214.230469 229.035156 214.472656 229.992188 C 214.703125 230.917969 215.589844 231.34375 216.476562 231.136719 C 218.492188 230.675781 219.691406 228.296875 219.953125 226.414062 C 219.976562 226.25 219.988281 226.089844 220 225.925781 C 221.1875 225.5 222.410156 225.28125 223.777344 225.488281 C 224.746094 225.636719 225.863281 225.949219 226.53125 226.710938 C 227.28125 227.554688 227.269531 228.882812 227.144531 229.9375 C 226.855469 232.316406 225.75 234.625 224.492188 236.648438 C 224.390625 236.082031 224.183594 235.539062 223.8125 235.054688 C 222.417969 233.191406 219.828125 233.125 217.71875 233.101562 C 216.394531 233.089844 215.117188 233.285156 213.90625 233.714844 C 213.941406 232.085938 213.378906 230.5 212.375 229.136719 C 209.53125 225.269531 204.09375 224.042969 199.578125 224.933594 C 198.023438 225.234375 196.351562 225.847656 194.980469 226.792969 C 194.636719 226.425781 194.242188 226.101562 193.875 225.789062 C 192.007812 224.253906 189.820312 223.109375 187.472656 222.554688 C 183.105469 221.527344 178.453125 222.714844 175.191406 225.800781 C 174.132812 224.320312 172.667969 223.050781 171.195312 222.113281 C 169.269531 220.890625 166.78125 219.839844 164.582031 220.9375 C 162.738281 221.859375 161.65625 223.917969 161.460938 225.914062 C 161.207031 228.386719 161.980469 230.859375 163.199219 232.984375 C 163.902344 234.222656 164.777344 235.34375 165.722656 236.40625 C 165.628906 236.992188 165.617188 237.59375 165.710938 238.21875 C 166.078125 240.5625 167.679688 242.597656 169.523438 244.003906 C 170.214844 244.539062 171.320312 245.390625 172.195312 244.757812 C 173.039062 244.15625 172.65625 243.035156 172.160156 242.355469 C 170.503906 240.101562 168.359375 238.183594 166.472656 236.117188 C 167.046875 233.757812 169.292969 232.40625 171.539062 231.808594 C 175.285156 230.800781 180.019531 231.03125 183.140625 233.5625 C 183.738281 234.046875 184.269531 234.625 184.707031 235.261719 C 184.476562 235.46875 184.257812 235.6875 184.050781 235.90625 C 183.417969 236.589844 182.863281 237.480469 183.265625 238.425781 C 183.589844 239.210938 184.394531 239.464844 185.15625 239.164062 C 186.882812 238.496094 186.375 236.714844 185.617188 235.398438 C 186.386719 234.753906 187.242188 234.1875 188.140625 233.714844 C 192.160156 231.574219 197.320312 231.148438 201.109375 233.992188 C 203.042969 235.433594 204.96875 237.699219 205.152344 240.214844 C 205.1875 240.609375 205.152344 240.980469 205.082031 241.335938 C 204.945312 241.371094 204.796875 241.394531 204.65625 241.429688 C 203.460938 241.695312 202.261719 242.007812 201.15625 242.539062 C 200.28125 242.953125 199.011719 243.636719 198.816406 244.699219 C 198.414062 246.972656 202.46875 245.414062 203.285156 244.894531 C 204.414062 244.191406 205.257812 243.152344 205.636719 241.9375 C 207.859375 241.523438 210.210938 241.429688 212.351562 242.238281 C 214.988281 243.242188 217.027344 245.808594 215.625 248.660156 C 214.539062 250.867188 212.15625 252.425781 210.023438 253.511719 C 205.082031 256.007812 199.347656 256.722656 193.886719 256.367188 C 192.480469 256.273438 191.054688 256.160156 189.683594 255.871094 C 188.828125 255.695312 187.898438 255.417969 187.21875 254.839844 C 188.230469 255.09375 189.257812 255.304688 190.269531 255.476562 C 192.90625 255.914062 195.582031 256.089844 198.242188 255.984375 C 200.441406 255.902344 203.816406 256.019531 205.027344 253.722656 C 206.1875 251.527344 203.851562 249.402344 202.273438 248.210938 C 200.28125 246.707031 197.859375 245.738281 195.363281 245.621094 C 193.023438 245.519531 190.648438 246.234375 188.773438 247.65625 C 187.113281 248.914062 185.375 251.097656 185.640625 253.328125 C 185.652344 253.457031 185.671875 253.570312 185.695312 253.6875 C 182.738281 252.773438 179.902344 251.46875 177.3125 249.757812 C 176.46875 249.203125 175.527344 248.511719 174.847656 247.691406 C 174.890625 247.65625 174.9375 247.621094 174.984375 247.585938 C 176.78125 246.246094 178.300781 244.386719 180.457031 243.601562 C 183.242188 242.574219 186.25 243.359375 188.933594 244.328125 C 189.878906 244.664062 191.363281 245.601562 192.390625 245.058594 C 192.828125 244.824219 193.136719 244.339844 193.070312 243.832031 C 192.894531 242.652344 191.226562 241.914062 190.304688 241.476562 C 186.800781 239.800781 183.023438 239.199219 179.210938 240.214844 C 176.988281 240.816406 174.40625 241.972656 173.507812 244.269531 C 173.039062 245.460938 173.289062 246.558594 173.878906 247.515625 C 173.128906 247.945312 172.324219 248.222656 171.414062 248.140625 C 170.214844 248.039062 169.132812 247.402344 168.128906 246.765625 C 167.152344 246.144531 166.21875 245.4375 165.34375 244.664062 C 163.660156 243.1875 162.210938 241.464844 160.976562 239.59375 C 158.523438 235.894531 156.851562 231.75 155.296875 227.613281 C 154.515625 225.523438 153.753906 223.433594 152.9375 221.351562 C 152.304688 219.757812 151.566406 217.390625 149.675781 216.917969 C 147.84375 216.386719 146.761719 218.140625 146.496094 219.710938 C 146.128906 221.847656 146.726562 224.207031 147.28125 226.25 C 150.066406 236.554688 157.738281 244.273438 165.734375 250.84375 C 167.855469 252.589844 170.007812 254.265625 172.160156 255.949219 C 173.246094 256.792969 174.339844 257.625 175.398438 258.492188 C 176.160156 259.117188 177.816406 260.976562 176.042969 261.496094 C 174.972656 261.808594 173.625 261.21875 172.609375 260.917969 C 171.34375 260.535156 170.101562 260.097656 168.878906 259.601562 C 166.332031 258.574219 163.890625 257.300781 161.574219 255.835938 C 161.195312 255.59375 160.851562 256.191406 161.230469 256.4375 C 163.636719 257.960938 166.171875 259.265625 168.820312 260.316406 C 170.121094 260.835938 171.460938 261.300781 172.808594 261.703125 C 173.84375 262.015625 175.03125 262.441406 176.136719 262.1875 C 177.023438 261.980469 177.644531 261.21875 177.507812 260.28125 C 177.34375 259.242188 176.457031 258.457031 175.675781 257.832031 C 173.3125 255.949219 170.917969 254.125 168.554688 252.242188 C 159.90625 245.347656 151.164062 237.457031 148.039062 226.414062 C 147.671875 225.105469 147.382812 223.765625 147.199219 222.425781 C 147.050781 221.304688 146.992188 220.175781 147.351562 219.089844 C 147.683594 218.082031 148.523438 217.148438 149.675781 217.5625 C 150.816406 217.957031 151.414062 219.34375 151.84375 220.371094 C 153.640625 224.667969 155.054688 229.117188 156.933594 233.390625 C 158.742188 237.503906 161.035156 241.476562 164.328125 244.582031 C 165.953125 246.121094 167.921875 247.703125 170.042969 248.453125 C 171.5625 248.996094 172.992188 248.753906 174.304688 248.003906 C 174.71875 248.523438 175.226562 248.996094 175.746094 249.402344 C 178.75 251.746094 182.355469 253.410156 186.078125 254.460938 C 186.871094 255.777344 188.621094 256.332031 190.121094 256.574219 C 193.046875 257.046875 196.050781 257.199219 199.011719 257 C 204.09375 256.65625 209.566406 255.257812 213.609375 252.011719 C 215.417969 250.554688 217.167969 248.476562 216.785156 245.992188 C 216.429688 243.625 214.265625 242.042969 212.132812 241.359375 C 210.105469 240.714844 207.929688 240.78125 205.84375 241.152344 C 205.914062 240.703125 205.914062 240.238281 205.84375 239.765625 C 205.507812 237.445312 203.929688 235.386719 202.191406 233.910156 C 200.476562 232.453125 198.472656 231.566406 196.238281 231.320312 C 192.414062 230.90625 188.265625 232.269531 185.28125 234.777344 C 185.222656 234.683594 185.15625 234.601562 185.097656 234.523438 C 182.632812 231.253906 178.222656 230.316406 174.351562 230.628906 C 172.230469 230.800781 170.007812 231.289062 168.246094 232.546875 C 167.175781 233.308594 166.402344 234.335938 166 235.503906 C 164.292969 233.539062 162.867188 231.390625 162.335938 228.640625 C 161.851562 226.125 162.359375 222.96875 164.8125 221.617188 C 167.4375 220.164062 170.757812 222.324219 172.714844 224.054688 C 173.464844 224.726562 174.15625 225.476562 174.753906 226.296875 C 173.867188 227.265625 172.773438 228.964844 173.957031 230.050781 C 174.535156 230.570312 175.457031 230.457031 175.976562 229.914062 C 176.699219 229.148438 176.527344 227.984375 176.101562 227.128906 C 175.976562 226.875 175.824219 226.609375 175.675781 226.367188 C 175.734375 226.308594 175.789062 226.261719 175.847656 226.203125 C 176.539062 225.570312 177.3125 225.003906 178.128906 224.53125 C 183.207031 221.582031 189.566406 222.796875 193.863281 226.585938 C 194.082031 226.78125 194.3125 226.988281 194.53125 227.210938 C 194.222656 227.476562 193.921875 227.753906 193.65625 228.054688 C 193.113281 228.675781 192.816406 229.589844 193.277344 230.351562 C 193.714844 231.078125 194.648438 231.207031 195.351562 230.789062 C 196.15625 230.304688 196.351562 229.277344 196.109375 228.421875 C 195.996094 228.03125 195.8125 227.671875 195.570312 227.335938 C 195.660156 227.277344 195.753906 227.210938 195.84375 227.152344 C 198.078125 225.730469 200.796875 225.199219 203.425781 225.371094 C 206.121094 225.546875 208.941406 226.457031 210.921875 228.375 C 212.492188 229.890625 213.445312 231.910156 213.308594 233.992188 C 212.511719 234.335938 211.765625 234.777344 211.050781 235.320312 C 210.234375 235.953125 207.042969 238.84375 209.402344 239.570312 C 210.371094 239.871094 211.371094 239.015625 211.996094 238.378906 C 212.753906 237.617188 213.320312 236.671875 213.664062 235.652344 C 213.804688 235.25 213.894531 234.855469 213.953125 234.453125 C 214.425781 234.269531 214.921875 234.117188 215.417969 234.003906 C 216.925781 233.667969 218.527344 233.769531 220.046875 233.910156 C 221.347656 234.023438 222.777344 234.511719 223.503906 235.675781 C 223.871094 236.265625 223.996094 236.9375 223.976562 237.617188 C 222.742188 239.410156 221.257812 241.027344 219.5625 242.398438 C 218.8125 243.011719 217.511719 243.613281 217.328125 244.675781 C 217.203125 245.414062 217.683594 246.167969 218.492188 246.085938 C 219.492188 245.992188 220.449219 244.835938 221.128906 244.179688 C 222.027344 243.3125 222.867188 242.355469 223.503906 241.269531 C 224.078125 240.273438 224.550781 239.0625 224.644531 237.847656 C 225.761719 236.207031 226.695312 234.40625 227.328125 232.523438 C 227.9375 230.699219 228.570312 228.019531 227.222656 226.355469 C 226.070312 224.933594 223.757812 224.597656 222.039062 224.738281 C 221.382812 224.796875 220.738281 224.933594 220.105469 225.128906 C 220.046875 223.511719 219.449219 221.964844 218.375 220.71875 C 215.832031 217.726562 211.1875 216.8125 207.582031 218.164062 C 206.59375 218.535156 205.542969 219.125 204.761719 219.921875 C 204.128906 219.125 203.390625 218.417969 202.582031 217.804688 C 200.753906 216.398438 198.539062 215.425781 196.238281 215.148438 C 193.574219 214.824219 191.226562 215.621094 189.058594 217.136719 C 188.554688 217.496094 188.035156 217.886719 187.585938 218.335938 C 187.492188 218.246094 187.402344 218.164062 187.320312 218.070312 C 185.488281 216.269531 183.300781 214.757812 180.789062 214.085938 C 178.175781 213.382812 175.546875 213.671875 173.277344 215.207031 C 172.992188 215.402344 172.726562 215.613281 172.460938 215.832031 C 171.632812 214.847656 170.375 214.144531 169.234375 213.761719 C 167.75 213.253906 166.058594 213.324219 164.71875 214.0625 C 164.675781 213.578125 164.628906 213.082031 164.582031 212.597656 C 164.375 210.296875 164.292969 207.941406 165.03125 205.710938 C 165.734375 203.609375 167.40625 201.726562 169.730469 201.53125 C 172.460938 201.289062 174.648438 203.238281 175.746094 205.574219 C 176.019531 206.160156 176.296875 206.773438 176.515625 207.410156 C 175.894531 208.113281 175.375 208.921875 175.007812 209.847656 C 174.671875 210.679688 174.304688 211.878906 174.671875 212.757812 C 174.996094 213.53125 175.859375 213.671875 176.492188 213.175781 C 177.324219 212.515625 177.5625 211.257812 177.632812 210.261719 C 177.703125 209.339844 177.542969 208.472656 177.277344 207.617188 C 178.003906 206.867188 178.867188 206.242188 179.800781 205.792969 C 182.183594 204.613281 185.203125 204.082031 187.828125 204.453125 C 190.59375 204.84375 193.105469 206.53125 194.589844 208.898438 C 194.671875 209.027344 194.738281 209.152344 194.808594 209.28125 C 193.898438 210.214844 192.664062 211.695312 193.058594 212.976562 C 193.265625 213.671875 194.046875 214.109375 194.75 213.949219 C 195.753906 213.707031 196.132812 212.574219 196.167969 211.648438 C 196.191406 210.863281 196.007812 210.101562 195.671875 209.375 C 197.03125 208.046875 198.746094 207.0625 200.523438 206.472656 C 202.929688 205.664062 205.695312 205.492188 208.078125 206.484375 C 210.429688 207.46875 212.351562 209.617188 213.527344 211.835938 C 213.664062 212.089844 213.792969 212.355469 213.917969 212.632812 C 213.398438 213.601562 213.054688 214.664062 212.972656 215.714844 C 212.90625 216.59375 213.355469 217.738281 214.414062 217.691406 C 215.277344 217.644531 215.589844 216.765625 215.566406 216.027344 C 215.542969 214.917969 215.207031 213.738281 214.726562 212.644531 C 215.691406 210.933594 217.214844 209.546875 219.03125 208.796875 C 220.933594 208.011719 223.515625 207.59375 225.324219 208.84375 C 225.542969 208.992188 225.738281 209.164062 225.921875 209.351562 C 225.910156 209.847656 225.886719 210.34375 225.851562 210.839844 C 225.679688 213.726562 225.3125 216.675781 225.253906 219.632812 Z M 225.046875 150.78125 C 221.394531 154.769531 217.742188 158.742188 214.089844 162.726562 C 214.976562 160.773438 215.867188 158.824219 216.753906 156.859375 C 219.402344 154.6875 222.179688 152.664062 225.046875 150.78125 Z M 216.199219 156.40625 C 215.679688 156.835938 215.152344 157.261719 214.644531 157.703125 C 215.40625 156.675781 216.1875 155.644531 216.996094 154.652344 C 216.71875 155.242188 216.453125 155.832031 216.199219 156.40625 Z M 224.585938 136.828125 C 222.535156 141.980469 220.347656 147.074219 218.101562 152.144531 C 217.316406 152.746094 216.234375 152.917969 215.394531 153.449219 C 214.378906 154.097656 213.492188 154.929688 212.570312 155.691406 C 210.945312 157.03125 209.378906 158.464844 207.90625 159.964844 C 208.34375 157.898438 208.816406 155.832031 209.3125 153.773438 C 213.988281 147.765625 219.089844 142.09375 224.585938 136.828125 Z M 208.675781 153.484375 C 207.722656 154.722656 206.777344 155.980469 205.855469 157.25 C 207.238281 153.867188 208.527344 150.449219 209.667969 146.980469 C 209.992188 146.53125 210.3125 146.082031 210.636719 145.628906 C 209.980469 148.242188 209.3125 150.863281 208.675781 153.484375 Z M 212.570312 131.570312 C 211.753906 136.066406 210.945312 140.570312 209.585938 144.9375 C 209.402344 145.515625 209.230469 146.082031 209.035156 146.660156 C 205.476562 151.695312 202.375 157.042969 199.75 162.632812 C 199.289062 161.238281 198.769531 159.851562 198.207031 158.5 C 198.296875 158.488281 198.390625 158.429688 198.4375 158.335938 C 199.507812 156.234375 200.578125 154.121094 201.652344 152.019531 C 201.765625 152.886719 201.871094 153.75 201.984375 154.605469 C 202.03125 154.988281 202.515625 155.078125 202.664062 154.699219 C 203.929688 151.371094 204.851562 147.953125 205.542969 144.488281 C 207.835938 140.144531 210.152344 135.835938 212.570312 131.570312 Z M 195.972656 153.660156 C 195.8125 153.359375 195.304688 153.496094 195.328125 153.832031 C 195.394531 154.894531 195.429688 155.945312 195.464844 157.007812 C 194.507812 154.710938 193.460938 152.445312 192.320312 150.226562 C 192.941406 148.425781 193.574219 146.625 194.234375 144.832031 C 195.394531 148.761719 196.46875 152.699219 197.445312 156.675781 C 196.972656 155.667969 196.492188 154.652344 195.972656 153.660156 Z M 202.515625 153.160156 C 202.421875 152.421875 202.320312 151.683594 202.226562 150.933594 C 202.929688 149.546875 203.644531 148.171875 204.359375 146.796875 C 203.851562 148.945312 203.242188 151.070312 202.515625 153.160156 Z M 202.066406 149.730469 C 201.511719 145.480469 200.960938 141.230469 200.417969 136.976562 C 200.949219 135.535156 201.511719 134.101562 202.125 132.679688 C 202.113281 133.753906 202.078125 134.828125 202.03125 135.902344 C 202.007812 136.355469 202.710938 136.355469 202.722656 135.902344 C 202.78125 134.285156 202.8125 132.679688 202.824219 131.0625 C 203.988281 128.488281 205.269531 125.957031 206.671875 123.496094 C 206.605469 130.441406 206.222656 137.453125 204.898438 144.253906 C 203.941406 146.082031 203 147.90625 202.066406 149.730469 Z M 201.257812 114.855469 C 201.859375 120.191406 202.144531 125.554688 202.132812 130.914062 C 201.453125 132.425781 200.820312 133.964844 200.222656 135.511719 C 200.050781 134.195312 199.886719 132.886719 199.714844 131.570312 C 199.679688 131.269531 199.242188 131.050781 199.070312 131.398438 C 198.910156 131.746094 198.746094 132.089844 198.585938 132.4375 C 199.09375 126.523438 199.820312 120.621094 201.257812 114.855469 Z M 196.90625 146.09375 C 196.492188 144.382812 196.085938 142.660156 195.707031 140.941406 C 196.132812 139.855469 196.570312 138.78125 197.019531 137.707031 C 197.148438 138.15625 197.261719 138.617188 197.390625 139.070312 C 197.492188 139.460938 198.035156 139.359375 198.070312 138.976562 C 198.183594 137.476562 198.289062 135.972656 198.414062 134.484375 C 198.667969 133.917969 198.921875 133.351562 199.1875 132.796875 C 199.359375 134.160156 199.542969 135.523438 199.714844 136.886719 C 198.609375 139.890625 197.675781 142.972656 196.90625 146.09375 Z M 197.574219 136.398438 C 197.5625 136.574219 197.550781 136.746094 197.539062 136.933594 C 197.515625 136.839844 197.492188 136.757812 197.46875 136.667969 C 197.503906 136.574219 197.539062 136.480469 197.574219 136.398438 Z M 193.148438 120.632812 C 194.152344 126.003906 195.351562 131.328125 196.730469 136.609375 C 196.292969 137.648438 195.867188 138.6875 195.441406 139.726562 C 194.105469 133.441406 193.105469 127.066406 193.148438 120.632812 Z M 195.257812 142.09375 C 195.683594 143.957031 196.121094 145.816406 196.570312 147.664062 C 196.652344 147.988281 197.160156 148 197.238281 147.664062 C 197.964844 144.519531 198.851562 141.4375 199.910156 138.398438 C 200.441406 142.535156 200.984375 146.671875 201.511719 150.804688 C 200.429688 152.929688 199.347656 155.046875 198.265625 157.171875 C 197.167969 152.664062 195.949219 148.207031 194.625 143.769531 C 194.832031 143.203125 195.050781 142.648438 195.257812 142.09375 Z M 188.207031 126.835938 C 190.292969 132.402344 192.195312 138.039062 193.910156 143.746094 C 193.207031 145.617188 192.539062 147.5 191.894531 149.394531 C 191.582031 148.808594 191.261719 148.230469 190.9375 147.652344 C 190.015625 140.710938 189.105469 133.777344 188.207031 126.835938 Z M 191.570312 150.296875 C 191.503906 150.503906 191.421875 150.726562 191.351562 150.933594 C 191.296875 150.46875 191.226562 150.007812 191.167969 149.546875 C 191.308594 149.789062 191.445312 150.042969 191.570312 150.296875 Z M 187.804688 143.804688 C 188.667969 145.132812 189.488281 146.496094 190.269531 147.882812 C 190.464844 149.394531 190.660156 150.898438 190.855469 152.410156 C 190.847656 152.433594 190.847656 152.457031 190.835938 152.480469 C 190.269531 151.1875 189.695312 149.90625 189.105469 148.621094 C 188.703125 147.003906 188.277344 145.398438 187.804688 143.804688 Z M 187.828125 161.769531 C 185.9375 159.078125 184.71875 156.097656 183.796875 153 C 185.203125 154.582031 186.515625 156.246094 187.734375 157.96875 C 187.941406 158.683594 188.152344 159.398438 188.359375 160.117188 C 188.171875 160.671875 188 161.226562 187.828125 161.769531 Z M 188.359375 157.667969 C 187.691406 155.367188 187.023438 153.082031 186.351562 150.78125 C 187.609375 152.351562 188.75 154.003906 189.773438 155.726562 C 189.488281 156.628906 189.1875 157.527344 188.898438 158.429688 C 188.714844 158.175781 188.542969 157.921875 188.359375 157.667969 Z M 190.511719 153.449219 C 190.441406 153.671875 190.375 153.878906 190.292969 154.097656 C 190.15625 153.394531 190.015625 152.699219 189.867188 151.996094 C 190.085938 152.480469 190.304688 152.964844 190.511719 153.449219 Z M 182.539062 148.066406 C 181.355469 142.707031 180.386719 137.289062 179.660156 131.847656 C 182.839844 137.382812 185.765625 143.054688 188.449219 148.839844 C 188.886719 150.597656 189.269531 152.375 189.613281 154.15625 C 188.472656 152.363281 187.207031 150.65625 185.800781 149.050781 C 185.570312 148.785156 185.132812 149.0625 185.222656 149.382812 C 185.871094 151.601562 186.515625 153.820312 187.160156 156.027344 C 185.972656 154.46875 184.707031 152.953125 183.371094 151.523438 C 183.070312 150.378906 182.792969 149.222656 182.539062 148.066406 Z M 185.765625 170.039062 C 183.277344 165.671875 180.628906 161.386719 177.667969 157.320312 C 179.789062 158.105469 181.699219 159.261719 183.417969 160.660156 C 184.371094 163.742188 185.109375 166.898438 185.765625 170.039062 Z M 190.628906 167.914062 C 188.796875 165.070312 186.605469 162.390625 184.015625 160.265625 C 182.5625 155.609375 180.652344 151.140625 177.816406 147.167969 C 179.535156 148.609375 181.160156 150.160156 182.691406 151.800781 C 183.140625 153.472656 183.65625 155.113281 184.292969 156.707031 C 185.15625 158.84375 186.261719 160.855469 187.644531 162.703125 C 187.816406 162.933594 188.171875 162.921875 188.277344 162.625 C 188.414062 162.183594 188.554688 161.746094 188.691406 161.304688 C 189.335938 163.511719 189.980469 165.707031 190.628906 167.914062 Z M 190.109375 156.917969 C 190.351562 158.382812 190.570312 159.851562 190.742188 161.328125 C 190.304688 160.601562 189.84375 159.875 189.382812 159.167969 C 189.625 158.417969 189.867188 157.667969 190.109375 156.917969 Z M 195.164062 167.441406 C 194.234375 163.363281 192.6875 159.433594 190.617188 155.820312 C 190.59375 155.714844 190.582031 155.609375 190.558594 155.507812 C 190.671875 155.136719 190.800781 154.769531 190.925781 154.398438 C 191.03125 154.640625 191.132812 154.882812 191.238281 155.136719 C 191.363281 155.449219 191.929688 155.300781 191.882812 154.964844 C 191.777344 154.132812 191.664062 153.3125 191.558594 152.480469 C 191.710938 152.03125 191.859375 151.589844 192.007812 151.140625 C 193.289062 153.671875 194.453125 156.269531 195.5 158.914062 C 195.511719 161.769531 195.40625 164.609375 195.164062 167.441406 Z M 198.539062 165.347656 C 197.828125 163.144531 197.042969 160.949219 196.191406 158.789062 C 196.179688 157.679688 196.15625 156.570312 196.109375 155.449219 C 197.390625 158.070312 198.472656 160.773438 199.347656 163.546875 C 199.058594 164.160156 198.792969 164.75 198.539062 165.347656 Z M 206.605469 161.351562 C 205.246094 162.84375 204.117188 164.496094 202.941406 166.136719 C 202.433594 166.851562 201.9375 167.566406 201.523438 168.339844 C 201.476562 168.421875 201.433594 168.503906 201.398438 168.582031 C 201.027344 166.898438 200.589844 165.234375 200.074219 163.59375 C 202.398438 158.546875 205.128906 153.683594 208.226562 149.0625 C 206.972656 152.664062 205.566406 156.222656 204.082031 159.734375 C 203.910156 160.140625 204.414062 160.460938 204.679688 160.082031 C 205.855469 158.40625 207.054688 156.742188 208.296875 155.113281 C 207.847656 157.042969 207.410156 158.972656 207.019531 160.914062 C 206.867188 161.0625 206.742188 161.203125 206.605469 161.351562 Z M 206.9375 165.003906 C 207.15625 163.742188 207.398438 162.496094 207.640625 161.25 C 209.402344 159.378906 211.292969 157.644531 213.273438 156.015625 C 214.207031 155.253906 215.09375 154.375 216.164062 153.808594 C 216.488281 153.648438 216.808594 153.519531 217.132812 153.394531 C 215.460938 155.414062 213.871094 157.515625 212.386719 159.6875 C 210.507812 161.386719 208.6875 163.15625 206.9375 165.003906 Z M 181.894531 178.761719 C 181.457031 179.28125 181.03125 179.800781 180.582031 180.308594 C 180.363281 180.550781 180.15625 180.804688 179.925781 181.023438 C 179.800781 181.140625 179.671875 181.246094 179.511719 181.324219 C 179.359375 181.429688 179.1875 181.464844 178.992188 181.417969 C 178.921875 181.164062 178.84375 180.921875 178.773438 180.667969 C 178.855469 180.214844 179.683594 179.605469 180.007812 179.339844 C 180.5 178.921875 181.054688 178.566406 181.628906 178.253906 C 181.988281 178.066406 182.355469 177.894531 182.738281 177.757812 C 182.449219 178.089844 182.171875 178.425781 181.894531 178.761719 Z M 192.78125 182.132812 C 192.746094 182.574219 192.25 183.347656 191.675781 182.988281 C 191.078125 182.621094 191.558594 181.566406 191.800781 181.140625 C 191.953125 180.886719 192.113281 180.65625 192.285156 180.425781 C 192.414062 180.644531 192.515625 180.875 192.609375 181.105469 C 192.722656 181.441406 192.804688 181.789062 192.78125 182.132812 Z M 205.601562 183.371094 C 205.671875 183.695312 205.53125 184.664062 204.957031 183.878906 C 204.609375 183.417969 204.644531 182.433594 204.632812 181.890625 C 204.632812 181.753906 204.632812 181.601562 204.644531 181.464844 C 205.039062 182.042969 205.464844 182.6875 205.601562 183.371094 Z M 214.183594 190.984375 C 214.539062 191.59375 214.804688 192.265625 214.921875 192.957031 C 214.96875 193.269531 215.023438 193.640625 214.910156 193.953125 C 214.875 194.054688 214.75 194.34375 214.632812 194.390625 C 214.171875 194.597656 213.90625 193.882812 213.804688 193.617188 C 213.34375 192.378906 212.753906 190.808594 212.800781 189.46875 C 212.800781 189.378906 212.8125 189.285156 212.824219 189.191406 C 213.34375 189.734375 213.816406 190.335938 214.183594 190.984375 Z M 197.191406 192.644531 C 197.019531 193.339844 196.085938 193.753906 195.683594 192.992188 C 195.175781 192.023438 195.765625 190.84375 196.433594 189.976562 C 196.664062 190.382812 196.859375 190.808594 197.019531 191.25 C 197.167969 191.6875 197.308594 192.183594 197.191406 192.644531 Z M 181.320312 189.5625 C 181.101562 189.851562 179.546875 191.640625 179.464844 190.441406 C 179.429688 189.839844 180.0625 189.019531 180.386719 188.546875 C 180.949219 187.714844 181.652344 186.960938 182.425781 186.316406 C 182.472656 187.472656 182.023438 188.613281 181.320312 189.5625 Z M 169.570312 198.410156 C 169.269531 198.746094 168.730469 198.871094 168.5 198.363281 C 168.382812 198.109375 168.441406 197.773438 168.5 197.519531 C 168.625 196.988281 168.925781 196.492188 169.214844 196.042969 C 169.695312 195.316406 170.332031 194.691406 171.042969 194.183594 C 170.835938 194.828125 170.640625 195.476562 170.433594 196.125 C 170.226562 196.816406 170.078125 197.867188 169.570312 198.410156 Z M 186.539062 199.195312 C 186.894531 199.890625 187.089844 200.964844 186.34375 201.507812 C 185.984375 201.761719 185.246094 201.761719 185.027344 201.296875 C 184.785156 200.789062 185.453125 200.074219 185.753906 199.738281 C 185.972656 199.496094 186.214844 199.253906 186.457031 199.035156 C 186.480469 199.082031 186.515625 199.136719 186.539062 199.195312 Z M 206.960938 203.136719 C 206.789062 203.863281 205.625 204.742188 205.234375 203.65625 C 204.957031 202.894531 205.578125 202.140625 206.039062 201.597656 C 206.179688 201.4375 206.328125 201.277344 206.476562 201.113281 C 206.835938 201.773438 207.109375 202.488281 206.960938 203.136719 Z M 174.453125 243.914062 C 175.824219 241.578125 179.132812 240.65625 181.640625 240.402344 C 184.984375 240.054688 188.53125 240.898438 191.363281 242.746094 C 191.699219 242.964844 192.433594 243.417969 192.433594 243.890625 C 192.425781 245.082031 190.039062 243.902344 189.554688 243.71875 C 187.136719 242.828125 184.566406 242.078125 181.964844 242.445312 C 179.660156 242.78125 177.945312 244.121094 176.238281 245.613281 C 175.6875 246.097656 175.121094 246.617188 174.5 247.042969 C 173.925781 246.144531 173.761719 245.082031 174.453125 243.914062 Z M 189.695312 247.816406 C 194.105469 244.917969 199.921875 246.375 203.425781 250.035156 C 204.425781 251.074219 205.234375 252.601562 204.070312 253.847656 C 203.066406 254.921875 201.398438 255.003906 200.027344 255.117188 C 197.433594 255.328125 194.832031 255.292969 192.25 254.992188 C 190.328125 254.773438 188.402344 254.390625 186.539062 253.859375 C 185.511719 251.6875 188.023438 248.914062 189.695312 247.816406 Z M 201.234375 244.964844 C 200.996094 245.023438 200.753906 245.070312 200.5 245.101562 C 200.359375 245.113281 200.1875 245.160156 200.050781 245.136719 C 199.933594 245.113281 199.542969 244.859375 199.53125 244.722656 C 199.484375 244.097656 200.773438 243.464844 201.214844 243.230469 C 202.351562 242.632812 203.632812 242.308594 204.875 242.03125 C 204.875 242.03125 204.886719 242.03125 204.886719 242.03125 C 204.265625 243.496094 202.824219 244.558594 201.234375 244.964844 Z M 184.382812 238.53125 C 183.644531 238.3125 183.832031 237.339844 184.140625 236.867188 C 184.394531 236.472656 184.753906 236.128906 185.109375 235.804688 C 185.363281 236.253906 185.640625 236.773438 185.671875 237.304688 C 185.71875 237.941406 185.109375 238.75 184.382812 238.53125 Z M 171.160156 242.113281 C 171.503906 242.527344 172.726562 244.015625 171.550781 244.132812 C 170.835938 244.203125 170.113281 243.519531 169.582031 243.082031 C 167.84375 241.601562 166.277344 239.410156 166.378906 237.027344 C 167.023438 237.722656 167.691406 238.402344 168.359375 239.085938 C 169.304688 240.066406 170.273438 241.058594 171.160156 242.113281 Z M 175.445312 229.394531 C 174.8125 230.085938 174.074219 229.382812 174.132812 228.640625 C 174.1875 227.972656 174.617188 227.359375 175.097656 226.839844 C 175.132812 226.898438 175.167969 226.945312 175.203125 227 C 175.617188 227.660156 176.078125 228.699219 175.445312 229.394531 Z M 195.210938 228.121094 C 195.582031 228.839844 195.601562 230.214844 194.519531 230.28125 C 193.3125 230.375 193.703125 228.941406 194.164062 228.421875 C 194.394531 228.15625 194.660156 227.925781 194.945312 227.707031 C 195.050781 227.832031 195.132812 227.972656 195.210938 228.121094 Z M 212.699219 236.082031 C 212.226562 237.097656 211.152344 238.667969 209.945312 238.875 C 209.804688 238.875 209.667969 238.867188 209.542969 238.867188 C 209.472656 238.609375 209.390625 238.34375 209.324219 238.089844 C 209.34375 237.988281 209.496094 237.8125 209.566406 237.722656 C 209.773438 237.433594 210.003906 237.167969 210.242188 236.914062 C 210.714844 236.40625 211.246094 235.941406 211.820312 235.550781 C 212.25 235.25 212.6875 234.996094 213.160156 234.765625 C 213.042969 235.191406 212.90625 235.640625 212.699219 236.082031 Z M 223.457031 239.664062 C 222.949219 240.96875 222.097656 242.113281 221.128906 243.117188 C 220.679688 243.589844 220.195312 244.039062 219.703125 244.46875 C 219.4375 244.699219 219.160156 244.976562 218.847656 245.160156 C 218.550781 245.335938 218.144531 245.542969 217.960938 244.894531 C 217.894531 244.628906 218.179688 244.304688 218.332031 244.15625 C 218.734375 243.738281 219.273438 243.429688 219.734375 243.070312 C 220.289062 242.632812 220.832031 242.15625 221.347656 241.671875 C 222.179688 240.886719 222.949219 240.03125 223.652344 239.121094 C 223.59375 239.304688 223.527344 239.488281 223.457031 239.664062 Z M 218.59375 228.457031 C 218.113281 229.300781 216.523438 231.21875 215.460938 230.203125 C 214.886719 229.648438 215.230469 228.722656 215.703125 228.226562 C 216.097656 227.808594 216.613281 227.554688 217.109375 227.289062 C 217.859375 226.886719 218.59375 226.492188 219.355469 226.167969 C 219.242188 226.976562 219 227.753906 218.59375 228.457031 Z M 205.164062 223.351562 C 204.324219 223.777344 204.160156 222.636719 204.277344 222.070312 C 204.359375 221.675781 204.507812 221.316406 204.726562 220.996094 C 205.347656 221.871094 205.914062 222.96875 205.164062 223.351562 Z M 188.128906 220.210938 C 188.207031 220.464844 188.21875 220.730469 188.105469 220.984375 C 187.941406 221.328125 187.449219 221.6875 187.054688 221.007812 C 186.847656 220.636719 187.21875 219.921875 187.402344 219.632812 C 187.460938 219.527344 187.527344 219.433594 187.597656 219.34375 C 187.816406 219.597656 188.023438 219.886719 188.128906 220.210938 Z M 171.621094 220.09375 C 170.457031 220.394531 170.824219 218.925781 171.136719 218.371094 C 171.460938 217.804688 171.875 217.296875 172.324219 216.835938 C 172.808594 217.828125 172.910156 219.757812 171.621094 220.09375 Z M 164.226562 218.09375 C 164.226562 218.246094 164.214844 218.382812 164.191406 218.535156 C 164.121094 218.890625 164.167969 218.902344 163.765625 218.859375 C 163.328125 218.800781 163.269531 218.546875 163.199219 218.128906 C 163.132812 217.75 163.164062 217.34375 163.246094 216.964844 C 163.40625 216.269531 163.71875 215.726562 164.121094 215.300781 C 164.167969 215.898438 164.203125 216.5 164.226562 217.101562 C 164.238281 217.4375 164.238281 217.761719 164.226562 218.09375 Z M 176.941406 209.8125 C 176.929688 210.515625 176.828125 211.324219 176.503906 211.960938 C 176.425781 212.121094 176.308594 212.308594 176.183594 212.445312 C 176.101562 212.515625 176.007812 212.585938 175.929688 212.652344 C 175.710938 212.550781 175.480469 212.433594 175.261719 212.332031 C 175.097656 212.078125 175.25 211.453125 175.296875 211.1875 C 175.515625 210.054688 176.019531 209.027344 176.734375 208.148438 C 176.875 208.691406 176.953125 209.246094 176.941406 209.8125 Z M 195.394531 210.886719 C 195.511719 211.589844 195.363281 213.71875 194.09375 213.152344 C 193.105469 212.710938 194.046875 211.28125 194.429688 210.738281 C 194.636719 210.4375 194.867188 210.160156 195.109375 209.882812 C 195.246094 210.207031 195.351562 210.527344 195.394531 210.886719 Z M 214.78125 215.460938 C 214.828125 215.703125 214.875 215.992188 214.828125 216.246094 C 214.804688 216.398438 214.75 216.699219 214.609375 216.8125 C 214.136719 217.207031 213.746094 216.605469 213.652344 216.292969 C 213.445312 215.589844 213.816406 214.628906 214.046875 213.960938 C 214.101562 213.796875 214.171875 213.636719 214.242188 213.472656 C 214.484375 214.109375 214.679688 214.78125 214.78125 215.460938 Z M 227.878906 216.617188 C 227.890625 218.1875 227.730469 219.769531 227.371094 221.304688 C 227.304688 221.59375 227.246094 221.964844 227.074219 222.207031 C 226.726562 222.691406 226.3125 222.519531 226.105469 222.046875 C 225.851562 221.457031 225.933594 220.695312 225.933594 220.082031 C 225.957031 216.941406 226.371094 213.796875 226.53125 210.65625 C 226.542969 210.480469 226.542969 210.308594 226.554688 210.136719 C 227.695312 211.984375 227.855469 214.675781 227.878906 216.617188 Z M 227.878906 216.617188 "/></g></g></svg>